<?xml version="1.0" encoding="UTF-8"?>
<svg version="1.1" xmlns="http://www.w3.org/2000/svg" width="360" height="360">
<path d="M0 0 C0.94866943 0.52182861 0.94866943 0.52182861 1.91650391 1.05419922 C16.48829927 9.17027693 28.95485545 19.53683169 41 31 C41.70511719 31.65226562 42.41023438 32.30453125 43.13671875 32.9765625 C72.89893459 61.3502774 92.17443164 105.5410279 93.26506042 146.43487549 C93.32591875 150.18620221 93.33056774 153.93579565 93.3125 157.6875 C93.30976578 158.87096512 93.30976578 158.87096512 93.30697632 160.07833862 C93.259642 172.27255373 92.69741541 184.06606078 90 196 C89.83371094 196.76940918 89.66742188 197.53881836 89.49609375 198.33154297 C82.37978517 230.49330423 66.48068014 260.05339071 43.41894531 283.54589844 C42.04784326 284.95097136 40.70685572 286.38523764 39.3671875 287.8203125 C10.10606562 318.4789805 -33.29027525 337.31480771 -75.421875 338.375 C-130.17363784 339.43109187 -175.1559013 323.85773601 -215 286 C-215.69351563 285.3709375 -216.38703125 284.741875 -217.1015625 284.09375 C-247.24363506 255.8122992 -265.27323669 210.42980856 -267.15234375 169.69775391 C-268.15371019 134.54478486 -261.96694784 102.02254879 -245 71 C-244.49412354 70.06510742 -244.49412354 70.06510742 -243.97802734 69.11132812 C-238.13574551 58.45269909 -230.94216494 49.17350834 -223 40 C-222.4956543 39.41444336 -221.99130859 38.82888672 -221.47167969 38.22558594 C-191.49227324 3.73442723 -147.04601485 -18.65668396 -101.35400391 -21.87109375 C-66.02909854 -23.80550052 -31.09302381 -17.21521087 0 0 Z M-124.76953125 69.07421875 C-126.54091792 73.28618261 -126.5693035 77.28388547 -126.6875 81.8125 C-126.72166016 82.69615234 -126.75582031 83.57980469 -126.79101562 84.49023438 C-126.87310433 86.65972167 -126.93823879 88.8298389 -127 91 C-127.73391968 91.00142502 -128.46783936 91.00285004 -129.22399902 91.00431824 C-136.16780393 91.02220738 -143.11110642 91.06399532 -150.05458832 91.13209057 C-153.62371591 91.16626478 -157.19241986 91.19145541 -160.76171875 91.19555664 C-164.21158393 91.19986051 -167.66049502 91.22849224 -171.11006165 91.27343178 C-173.05517466 91.29258883 -175.00048067 91.2870697 -176.94567871 91.28105164 C-184.01184805 91.39665777 -189.81077794 91.80104647 -195 97 C-198.81229048 101.66367321 -199.59650558 105.4143087 -199.59838867 111.28051758 C-199.61412996 112.09327589 -199.62987125 112.9060342 -199.64608955 113.74342155 C-199.69322991 116.43971144 -199.71214366 119.13540324 -199.73046875 121.83203125 C-199.75717925 123.75049394 -199.78538334 125.66893634 -199.81498718 127.58735657 C-199.88787026 132.68805554 -199.93481088 137.78866233 -199.9743576 142.8897171 C-199.99959962 145.95143651 -200.03133901 149.01301398 -200.06549072 152.074646 C-200.19966649 164.22928522 -200.27138604 176.38299199 -200.29516602 188.53833008 C-200.30421763 192.70057959 -200.32560245 196.86251572 -200.35668945 201.0246582 C-200.39508899 206.17062459 -200.41391696 211.31630753 -200.41844749 216.46241188 C-200.42328175 218.39005223 -200.43480402 220.31768909 -200.45348549 222.24524498 C-200.47785087 224.90952966 -200.47692513 227.5726985 -200.4699707 230.23706055 C-200.48278076 231.01036209 -200.49559082 231.78366364 -200.50878906 232.58039856 C-200.45610421 238.1295391 -199.06283134 242.35038022 -196 247 C-193.62157423 249.40406384 -193.62157423 249.40406384 -191 251 C-190.18077372 251.53679178 -190.18077372 251.53679178 -189.34499741 252.08442783 C-185.93359325 253.41636393 -182.58952098 253.28560836 -178.9800415 253.27415466 C-178.16555786 253.27939134 -177.35107421 253.28462802 -176.51190925 253.29002339 C-173.77904886 253.30504108 -171.04637541 253.30572893 -168.31347656 253.30639648 C-166.35544518 253.31401685 -164.3974168 253.32244414 -162.43939209 253.33161926 C-157.11694174 253.35358497 -151.79454885 253.36236612 -146.4720583 253.36744571 C-143.14656453 253.37108725 -139.82108586 253.3773263 -136.49559784 253.3844471 C-124.89321734 253.40895012 -113.29088161 253.42199505 -101.68847656 253.42553711 C-90.87527195 253.42917162 -80.06235131 253.4590589 -69.24923348 253.50094169 C-59.96501831 253.53564118 -50.68089724 253.5510855 -41.39661765 253.55178314 C-35.85188105 253.55257616 -30.30743356 253.56132614 -24.76276398 253.58978081 C-19.54567045 253.61595492 -14.32910583 253.61817009 -9.11197662 253.60212517 C-7.19960375 253.60031009 -5.28720052 253.60700669 -3.37489319 253.62294388 C-0.75860274 253.64341459 1.85583898 253.63284768 4.47210693 253.61473083 C5.22426538 253.6279308 5.97642383 253.64113077 6.75137496 253.65473074 C12.56441133 253.56314329 16.45699026 251.57494582 21 248 C24.80801985 243.89905555 26.12447583 240.87982559 26.12698364 235.33204651 C26.12980347 234.37236969 26.13262329 233.41269287 26.13552856 232.42393494 C26.13350433 231.37210526 26.1314801 230.32027557 26.12939453 229.23657227 C26.13114685 228.12709229 26.13289917 227.0176123 26.13470459 225.87451172 C26.13912167 222.18846084 26.1361822 218.50245766 26.1328125 214.81640625 C26.13348639 212.24543753 26.13445713 209.67446887 26.13571167 207.10350037 C26.13718911 201.69716735 26.13513137 196.29085219 26.13037109 190.88452148 C26.1249752 184.6858552 26.12665663 178.48722206 26.1321975 172.28855664 C26.13734214 166.28770794 26.13671987 160.28687504 26.13381577 154.28602409 C26.1331551 151.75429212 26.13394433 149.22255929 26.13629532 146.69082832 C26.14201108 138.79300305 26.10952477 130.89711754 26 123 C25.98679466 122.00182629 25.97358932 121.00365257 25.95998383 119.97523117 C25.91158196 117.20213534 25.83328414 114.43188055 25.74169922 111.65991211 C25.72811434 110.86142381 25.71452946 110.0629355 25.70053291 109.24025059 C25.44636701 103.2882705 23.63613748 99.6288467 19.33934021 95.34393311 C13.02739831 91.06484981 6.77731264 91.28597399 -0.65234375 91.328125 C-2.63171486 91.30865071 -4.61108594 91.28917317 -6.59045506 91.26949692 C-9.34073766 91.24844178 -12.09083785 91.25019617 -14.84118652 91.25140381 C-19.68448032 91.24816047 -24.52761992 91.20553305 -29.3707428 91.16766357 C-31.94592656 91.14984008 -34.5211757 91.1396112 -37.09642029 91.13751221 C-38.25174759 91.13370544 -39.40707489 91.12989868 -40.59741211 91.12597656 C-41.61919052 91.12551331 -42.64096893 91.12505005 -43.69371033 91.12457275 C-46 91 -46 91 -47 90 C-47.1202488 88.64412963 -47.17944488 87.28270286 -47.2109375 85.921875 C-47.23929688 85.09042969 -47.26765625 84.25898437 -47.296875 83.40234375 C-47.34849218 81.64994056 -47.39289757 79.89730841 -47.4296875 78.14453125 C-47.60658549 73.36091468 -47.77260314 69.80213877 -51 66 C-54.37775749 63.82511051 -57.18951335 63.74203625 -61.15795898 63.7253418 C-62.40282578 63.71580978 -63.64769257 63.70627777 -64.93028259 63.69645691 C-66.28555327 63.69671835 -67.64082395 63.69765545 -68.99609375 63.69921875 C-70.39087552 63.69532984 -71.78565611 63.69099476 -73.18043518 63.68623352 C-76.10153037 63.67877899 -79.02250468 63.67905696 -81.94360352 63.68432617 C-85.68061218 63.69011983 -89.41712506 63.67318918 -93.15405178 63.6499815 C-96.03403093 63.63522509 -98.91389119 63.63437502 -101.79390144 63.63749123 C-103.17136683 63.63697897 -104.54883903 63.63175912 -105.92626762 63.62167931 C-107.85502187 63.60929673 -109.78387651 63.61805917 -111.71264648 63.62768555 C-112.80866684 63.62705612 -113.90468719 63.6264267 -115.03392029 63.6257782 C-119.33386042 64.16828936 -121.97769293 65.80166655 -124.76953125 69.07421875 Z " fill="#0287D0" transform="translate(267,22)"/>
<path d="M0 0 C0.80126942 -0.00709439 1.60253883 -0.01418877 2.42808914 -0.02149814 C5.10457024 -0.03905615 7.77959487 -0.02098531 10.45605469 -0.00291443 C12.37822124 -0.0080541 14.30038307 -0.01533573 16.22253418 -0.02459717 C21.43746895 -0.04311323 26.65189253 -0.03017113 31.86680603 -0.01050687 C37.32527257 0.00587913 42.78370672 -0.0029332 48.2421875 -0.00802612 C57.4086117 -0.01254712 66.57483185 0.00332325 75.74121094 0.03126526 C86.33749724 0.0633171 96.9334155 0.06330138 107.52972794 0.04605049 C117.72474022 0.03018454 127.91961763 0.03691944 138.11462402 0.0539875 C142.45263257 0.06085855 146.79053302 0.05982496 151.12854004 0.05244255 C156.23731035 0.04477922 161.34566203 0.05690765 166.45436096 0.08429146 C168.32884987 0.09117583 170.20337787 0.09127271 172.0778656 0.08407593 C174.63766343 0.07538077 177.19616948 0.0913376 179.75585938 0.11352539 C180.49691547 0.10528462 181.23797157 0.09704386 182.00148392 0.08855337 C187.07594545 0.1696847 189.96023758 1.44784374 193.87792969 4.62818909 C196.63431574 8.6751374 196.48124444 12.90352943 195.87792969 17.62818909 C191.39272977 33.13072571 173.19294672 44.89572763 160.47216797 53.54273987 C159.13779865 54.45125533 157.81670863 55.37923388 156.49902344 56.31178284 C141.94277385 65.92046995 121.34404291 72.47597895 103.87792969 72.62818909 C102.27680545 71.02706485 102.49059512 69.02012986 102.19042969 66.81568909 C101.44487964 63.06648415 101.0914215 61.85235549 98.37792969 59.00318909 C92.89408363 56.84882099 87.86904654 56.91601841 82.17089844 58.27272034 C79.60660638 59.46437185 79.60660638 59.46437185 78.83886719 62.41334534 C78.64550781 63.49486877 78.45214844 64.57639221 78.25292969 65.69068909 C77.65136719 68.97584534 77.65136719 68.97584534 76.87792969 71.62818909 C64.08827184 75.89140837 44.08219447 66.42032381 32.69042969 60.81568909 C25.72737951 57.27339342 19.21377833 53.20563039 12.87792969 48.62818909 C11.73130859 47.80061096 11.73130859 47.80061096 10.56152344 46.95631409 C0.50850347 39.40306116 -11.998942 29.99757401 -16.12207031 17.62818909 C-16.3725996 13.11866191 -16.4115688 9.58277739 -14.12207031 5.62818909 C-9.60548801 1.05753414 -6.46782077 -0.10330037 0 0 Z " fill="#024063" transform="translate(90.1220703125,120.37181091308594)"/>
<path d="M0 0 C2.43153072 2.41868813 4.85049147 4.84338455 7.21875 7.32421875 C29.01374099 29.90293373 56.8615207 43.36879502 87.8828125 47.51953125 C91 48 91 48 92 49 C92.18425439 50.57932331 92.32254756 52.16412556 92.4375 53.75 C92.88597343 59.11953154 92.88597343 59.11953154 95 64 C100.20378041 66.56550013 105.30761091 66.71795898 111 66 C114.00197464 64.19881522 115.45166366 63.09667268 117 60 C117.31255647 57.14792222 117.51037482 54.29503146 117.71875 51.43359375 C118 49 118 49 119 48 C121.70633527 47.52684339 124.40903773 47.09751913 127.125 46.6875 C156.61495542 41.93501065 180.03190451 28.9709959 202 9 C202.33 8.34 202.66 7.68 203 7 C203.66 7 204.32 7 205 7 C205.268125 6.38125 205.53625 5.7625 205.8125 5.125 C207 3 207 3 210 1 C211.78608057 2.78608057 211.12625961 5.19263535 211.13552856 7.57098389 C211.13249222 8.76947968 211.13249222 8.76947968 211.12939453 9.9921875 C211.13202301 11.2482077 211.13202301 11.2482077 211.13470459 12.52960205 C211.13912401 15.31142214 211.1361848 18.09317921 211.1328125 20.875 C211.13348551 22.79931653 211.13445552 24.72363298 211.13571167 26.64794922 C211.13718877 30.68653165 211.13503371 34.725092 211.13037109 38.76367188 C211.1246738 43.95268511 211.12795274 49.14164663 211.13394356 54.33065796 C211.13754886 58.3059122 211.13641073 62.28115409 211.13381577 66.25640869 C211.13314641 68.1702678 211.13397522 70.08412802 211.13629532 71.99798584 C211.13882133 74.6679585 211.13498198 77.3378462 211.12939453 80.0078125 C211.13141876 80.80680969 211.13344299 81.60580688 211.13552856 82.42901611 C211.1142625 87.8857375 211.1142625 87.8857375 210 89 C207.29636982 89.10006991 204.61821496 89.13439874 201.9140625 89.12698364 C201.05636765 89.12854363 200.19867279 89.13010362 199.31498718 89.13171089 C196.41830771 89.13572464 193.52167993 89.1325298 190.625 89.12939453 C188.55753549 89.13074841 186.49007123 89.13252826 184.42260742 89.13470459 C178.79054173 89.13928057 173.15849426 89.13748869 167.52642822 89.1343255 C161.64652455 89.13180275 155.76662248 89.1341392 149.88671875 89.13571167 C140.0104138 89.13753361 130.13411632 89.13512641 120.2578125 89.13037109 C108.82151186 89.12492843 97.38522904 89.12669107 85.94892883 89.1321975 C76.14939725 89.13672792 66.34987104 89.13737952 56.55033875 89.13475883 C50.68899239 89.13319567 44.82765442 89.13300336 38.96630859 89.13629532 C33.45723634 89.13917301 27.94818718 89.13720022 22.43911743 89.13140106 C20.41093993 89.13007291 18.38276049 89.1304685 16.35458374 89.13266373 C13.59834162 89.1353731 10.84217475 89.13199674 8.0859375 89.12698364 C7.27243332 89.12921436 6.45892914 89.13144509 5.62077332 89.13374341 C0.11414983 89.11414983 0.11414983 89.11414983 -1 88 C-1.10046803 85.29699701 -1.13616452 82.61951654 -1.12939453 79.91601562 C-1.13114685 79.06891525 -1.13289917 78.22181488 -1.13470459 77.3490448 C-1.13912409 74.53475934 -1.13618477 71.72053616 -1.1328125 68.90625 C-1.13348551 66.95951322 -1.13445551 65.01277653 -1.13571167 63.06604004 C-1.13718878 58.98037925 -1.13503368 54.89474029 -1.13037109 50.80908203 C-1.1246738 45.55953484 -1.12795274 40.31003878 -1.13394356 35.06049347 C-1.13754883 31.03891613 -1.13641074 27.01735101 -1.13381577 22.99577332 C-1.1331464 21.05958551 -1.13397525 19.12339661 -1.13629532 17.18721008 C-1.13882129 14.48610476 -1.13498205 11.78508341 -1.12939453 9.08398438 C-1.13141876 8.27563644 -1.13344299 7.46728851 -1.13552856 6.63444519 C-1.11426248 1.11426248 -1.11426248 1.11426248 0 0 Z " fill="#034063" transform="translate(75,150)"/>
<path d="M0 0 C1.22025627 0.00334608 1.22025627 0.00334608 2.46516418 0.00675976 C3.32285904 0.00519977 4.18055389 0.00363978 5.0642395 0.00203252 C7.96091897 -0.00198124 10.85754675 0.00121361 13.75422668 0.00434887 C15.82169119 0.002995 17.88915546 0.00121515 19.95661926 -0.00096118 C25.58868496 -0.00553716 31.22073243 -0.00374528 36.85279846 -0.0005821 C42.73270214 0.00194066 48.6126042 -0.0003958 54.49250793 -0.00196826 C64.36881288 -0.00379021 74.24511037 -0.001383 84.12141418 0.00337231 C95.55771483 0.00881498 106.99399764 0.00705234 118.43029785 0.00154591 C128.22982944 -0.00298452 138.02935564 -0.00363612 147.82888794 -0.00101542 C153.6902343 0.00054774 159.55157226 0.00074004 165.41291809 -0.00255191 C170.92199035 -0.00542961 176.43103951 -0.00345682 181.94010925 0.00234234 C183.96828676 0.00367049 185.99646619 0.00327491 188.02464294 0.00107968 C190.78088507 -0.00162969 193.53705193 0.00174667 196.29328918 0.00675976 C197.51354546 0.00341368 197.51354546 0.00341368 198.75845337 0 C204.26507685 0.01959357 204.26507685 0.01959357 205.37922668 1.13374341 C205.53195086 3.21314177 205.6011799 5.29893272 205.62922668 7.38374341 C205.66789856 9.09304028 205.66789856 9.09304028 205.70735168 10.83686841 C205.22976028 15.63552495 203.06617963 19.06128262 199.37922668 22.13374341 C195.76068696 23.33992331 192.4538229 23.27857981 188.68711853 23.2741853 C187.50025163 23.27864198 187.50025163 23.27864198 186.28940761 23.2831887 C183.62939527 23.29188302 180.9694279 23.29338456 178.30940247 23.29487622 C176.40576582 23.29950383 174.50213011 23.30452841 172.59849548 23.30992138 C167.42081694 23.32305181 162.24315137 23.32949145 157.06545877 23.33393204 C153.83229681 23.33686138 150.59913841 23.34096589 147.36597824 23.34543622 C137.25483279 23.35911206 127.14369546 23.36877862 117.03254139 23.37263811 C105.35174577 23.37712098 93.67106704 23.3946792 81.99030697 23.4236387 C72.96688601 23.44523534 63.94349799 23.45534129 54.92005146 23.45667922 C49.52805203 23.45772859 44.13616248 23.46366436 38.74419022 23.48149884 C33.67332322 23.4979449 28.6026491 23.50015189 23.53176498 23.49135983 C21.66974115 23.49058763 19.8077071 23.49495619 17.94570923 23.50481808 C15.40534227 23.51748481 12.8656639 23.51168977 10.32530212 23.50123608 C9.21795202 23.51332069 9.21795202 23.51332069 8.08823121 23.52564943 C2.70306226 23.47375842 -0.2911402 22.04737061 -4.37077332 18.69624341 C-7.10457009 15.27899744 -6.75602085 11.15285737 -6.74577332 6.94624341 C-6.74835144 5.88018872 -6.75092957 4.81413403 -6.75358582 3.71577466 C-6.50988404 -1.02207461 -4.17528529 0.01485643 0 0 Z " fill="#053F61" transform="translate(80.62077331542969,244.8662565946579)"/>
<path d="M0 0 C1.17454239 -0.00622879 2.34908478 -0.01245758 3.55921936 -0.01887512 C4.82801437 -0.00966537 6.09680939 -0.00045563 7.40405273 0.0090332 C8.7046312 0.0085347 10.00520966 0.00803619 11.34519958 0.00752258 C14.09662481 0.00761226 16.84775672 0.01803231 19.59912109 0.03613281 C23.12900096 0.0588425 26.65845311 0.05935966 30.18838596 0.05261517 C33.5519906 0.04847467 36.91546286 0.06044274 40.27905273 0.0715332 C41.54987198 0.0706218 42.82069122 0.06971039 44.13002014 0.06877136 C45.30141037 0.07830338 46.4728006 0.08783539 47.6796875 0.09765625 C48.71432632 0.10226364 49.74896515 0.10687103 50.81495667 0.11161804 C53.27514648 0.37231445 53.27514648 0.37231445 55.27514648 2.37231445 C55.51806641 4.69482422 55.51806641 4.69482422 55.50561523 7.5637207 C55.50368164 8.59045898 55.50174805 9.61719727 55.49975586 10.67504883 C55.48750977 11.75077148 55.47526367 12.82649414 55.46264648 13.93481445 C55.46167969 15.55419922 55.46167969 15.55419922 55.46069336 17.20629883 C55.41529246 25.23216847 55.41529246 25.23216847 54.27514648 26.37231445 C52.34752831 26.47152308 50.41625294 26.5003081 48.48608398 26.50170898 C47.24810059 26.50486115 46.01011719 26.50801331 44.73461914 26.51126099 C43.3731279 26.5094712 42.01163697 26.50742025 40.65014648 26.50512695 C39.26391584 26.50580004 37.87768531 26.50677011 36.49145508 26.50802612 C33.58275227 26.50950285 30.67408011 26.50734935 27.76538086 26.50268555 C24.0291805 26.49698826 20.29305197 26.5002674 16.55685425 26.50625801 C13.69335383 26.5098643 10.82987055 26.50872473 7.96636963 26.50613022 C6.58839917 26.50546114 5.21042717 26.50628872 3.8324585 26.50860977 C1.90970894 26.51113737 -0.01304604 26.50660469 -1.93579102 26.50170898 C-3.5800708 26.50051559 -3.5800708 26.50051559 -5.25756836 26.4992981 C-7.72485352 26.37231445 -7.72485352 26.37231445 -8.72485352 25.37231445 C-9.00434682 21.75499353 -8.95665107 18.12415184 -8.97485352 14.49731445 C-8.99547852 13.47766602 -9.01610352 12.45801758 -9.03735352 11.4074707 C-9.04250977 10.42907227 -9.04766602 9.45067383 -9.05297852 8.44262695 C-9.06232422 7.54302246 -9.07166992 6.64341797 -9.08129883 5.71655273 C-8.26620041 0.3558849 -4.85242548 -0.00294972 0 0 Z " fill="#044062" transform="translate(156.724853515625,92.627685546875)"/>
<path d="M0 0 C2.43153072 2.41868813 4.85049147 4.84338455 7.21875 7.32421875 C29.01374099 29.90293373 56.8615207 43.36879502 87.8828125 47.51953125 C91 48 91 48 92 49 C92.18425439 50.57932331 92.32254756 52.16412556 92.4375 53.75 C92.88597343 59.11953154 92.88597343 59.11953154 95 64 C100.20378041 66.56550013 105.30761091 66.71795898 111 66 C114.00197464 64.19881522 115.45166366 63.09667268 117 60 C117.31255647 57.14792222 117.51037482 54.29503146 117.71875 51.43359375 C118 49 118 49 119 48 C121.85231224 47.4805883 124.69807543 47.00475082 127.5625 46.5625 C132.21726954 45.84198285 136.80896742 45.09561548 141.37109375 43.91015625 C144.75734721 43.0608591 147.53122299 42.82656115 151 43 C150.67 44.32 150.34 45.64 150 47 C149.49855469 46.79503906 148.99710938 46.59007812 148.48046875 46.37890625 C144.86562054 45.82671684 141.76126493 46.94870448 138.3125 47.9375 C132.36545352 49.54838328 127.20294545 50.44306753 121 50 C121.15662109 51.17755859 121.15662109 51.17755859 121.31640625 52.37890625 C121.65842538 56.80343939 121.92052719 60.45811696 119.59375 64.35546875 C113.961397 69.60872107 108.05967236 69.63137462 100.76586914 69.62207031 C98.59765625 69.5390625 98.59765625 69.5390625 95 69 C94.34 68.01 93.68 67.02 93 66 C92.34 65.34 91.68 64.68 91 64 C89.6163767 59.43404309 89.90741528 54.72182063 90 50 C89.16339844 49.97421875 88.32679688 49.9484375 87.46484375 49.921875 C70.56394399 49.09835386 55.19724691 43.63371094 40.04296875 36.3671875 C37.07208648 35.03238802 34.10544446 33.9748032 31 33 C31.33 32.01 31.66 31.02 32 30 C30.68 30 29.36 30 28 30 C26.375 28.5625 26.375 28.5625 25 27 C24.34 26.67 23.68 26.34 23 26 C22.54625 25.505 22.0925 25.01 21.625 24.5 C20.11306355 22.8378916 20.11306355 22.8378916 18 22.625 C16 22 16 22 14.625 19.6875 C12.62065618 16.37262369 10.20974969 15.09331502 7 13 C6.67 12.01 6.34 11.02 6 10 C4.68 10 3.36 10 2 10 C2.33 15.28 2.66 20.56 3 26 C3 45.8 3 65.6 3 86 C70.98 86.33 138.96 86.66 209 87 C208.67 60.6 208.34 34.2 208 7 C206.02 8.98 204.04 10.96 202 13 C201.34 13 200.68 13 200 13 C200 13.66 200 14.32 200 15 C198.30802149 16.22751382 196.61125177 17.44938139 194.8828125 18.625 C192.73941089 20.11619961 192.73941089 20.11619961 190.1875 22.8125 C189.465625 23.534375 188.74375 24.25625 188 25 C187.34 25 186.68 25 186 25 C185.67 26.65 185.34 28.3 185 30 C184.67 29.34 184.34 28.68 184 28 C182.02 28.495 182.02 28.495 180 29 C180 29.66 180 30.32 180 31 C178.824375 31.5775 177.64875 32.155 176.4375 32.75 C173.58743095 34.1623788 170.84687467 35.66791467 168.125 37.3125 C167.09375 37.869375 166.0625 38.42625 165 39 C164.34 38.67 163.68 38.34 163 38 C167.25846294 34.66888143 171.58542169 31.59087239 176.1875 28.75 C191.5072979 19.63839187 191.5072979 19.63839187 203 7 C203.66 7 204.32 7 205 7 C205.268125 6.38125 205.53625 5.7625 205.8125 5.125 C207 3 207 3 210 1 C211.78608057 2.78608057 211.12625961 5.19263535 211.13552856 7.57098389 C211.13249222 8.76947968 211.13249222 8.76947968 211.12939453 9.9921875 C211.13202301 11.2482077 211.13202301 11.2482077 211.13470459 12.52960205 C211.13912401 15.31142214 211.1361848 18.09317921 211.1328125 20.875 C211.13348551 22.79931653 211.13445552 24.72363298 211.13571167 26.64794922 C211.13718877 30.68653165 211.13503371 34.725092 211.13037109 38.76367188 C211.1246738 43.95268511 211.12795274 49.14164663 211.13394356 54.33065796 C211.13754886 58.3059122 211.13641073 62.28115409 211.13381577 66.25640869 C211.13314641 68.1702678 211.13397522 70.08412802 211.13629532 71.99798584 C211.13882133 74.6679585 211.13498198 77.3378462 211.12939453 80.0078125 C211.13141876 80.80680969 211.13344299 81.60580688 211.13552856 82.42901611 C211.1142625 87.8857375 211.1142625 87.8857375 210 89 C207.29636982 89.10006991 204.61821496 89.13439874 201.9140625 89.12698364 C201.05636765 89.12854363 200.19867279 89.13010362 199.31498718 89.13171089 C196.41830771 89.13572464 193.52167993 89.1325298 190.625 89.12939453 C188.55753549 89.13074841 186.49007123 89.13252826 184.42260742 89.13470459 C178.79054173 89.13928057 173.15849426 89.13748869 167.52642822 89.1343255 C161.64652455 89.13180275 155.76662248 89.1341392 149.88671875 89.13571167 C140.0104138 89.13753361 130.13411632 89.13512641 120.2578125 89.13037109 C108.82151186 89.12492843 97.38522904 89.12669107 85.94892883 89.1321975 C76.14939725 89.13672792 66.34987104 89.13737952 56.55033875 89.13475883 C50.68899239 89.13319567 44.82765442 89.13300336 38.96630859 89.13629532 C33.45723634 89.13917301 27.94818718 89.13720022 22.43911743 89.13140106 C20.41093993 89.13007291 18.38276049 89.1304685 16.35458374 89.13266373 C13.59834162 89.1353731 10.84217475 89.13199674 8.0859375 89.12698364 C7.27243332 89.12921436 6.45892914 89.13144509 5.62077332 89.13374341 C0.11414983 89.11414983 0.11414983 89.11414983 -1 88 C-1.10046803 85.29699701 -1.13616452 82.61951654 -1.12939453 79.91601562 C-1.13114685 79.06891525 -1.13289917 78.22181488 -1.13470459 77.3490448 C-1.13912409 74.53475934 -1.13618477 71.72053616 -1.1328125 68.90625 C-1.13348551 66.95951322 -1.13445551 65.01277653 -1.13571167 63.06604004 C-1.13718878 58.98037925 -1.13503368 54.89474029 -1.13037109 50.80908203 C-1.1246738 45.55953484 -1.12795274 40.31003878 -1.13394356 35.06049347 C-1.13754883 31.03891613 -1.13641074 27.01735101 -1.13381577 22.99577332 C-1.1331464 21.05958551 -1.13397525 19.12339661 -1.13629532 17.18721008 C-1.13882129 14.48610476 -1.13498205 11.78508341 -1.12939453 9.08398438 C-1.13141876 8.27563644 -1.13344299 7.46728851 -1.13552856 6.63444519 C-1.11426248 1.11426248 -1.11426248 1.11426248 0 0 Z " fill="#11334C" transform="translate(75,150)"/>
<path d="M0 0 C0.64735611 -0.0049649 1.29471222 -0.00992981 1.96168518 -0.01504517 C4.10679176 -0.02966978 6.25182438 -0.0364693 8.39697266 -0.04199219 C9.88668826 -0.04774348 11.37640383 -0.05350122 12.86611938 -0.05926514 C15.9916417 -0.06977603 19.11713828 -0.07561808 22.24267578 -0.07910156 C26.24659554 -0.08458597 30.25017517 -0.10861213 34.25398827 -0.13707352 C37.33207185 -0.15570267 40.41007357 -0.16090564 43.48820877 -0.16243744 C44.96419763 -0.16546399 46.44018506 -0.17349264 47.91611862 -0.18662262 C49.98210222 -0.20368939 52.04725564 -0.20180195 54.11328125 -0.1953125 C55.2886142 -0.19895813 56.46394714 -0.20260376 57.67489624 -0.20635986 C61.00538996 0.20010828 62.31878827 0.83086153 64.68603516 3.16113281 C67.80359179 8.71668878 68.07092692 13.3175256 67.87353516 19.59863281 C67.86 20.42556641 67.84646484 21.2525 67.83251953 22.10449219 C67.79750507 24.12365921 67.74371078 26.14248599 67.68603516 28.16113281 C68.41408859 28.1589122 69.14214203 28.15669159 69.89225769 28.15440369 C76.76313552 28.13434268 83.63400895 28.11912905 90.50490856 28.10932064 C94.0370579 28.10410849 97.56918298 28.09704117 101.10131836 28.08569336 C105.16471587 28.07272086 109.22808802 28.06789081 113.29150391 28.06347656 C114.55625046 28.05831528 115.82099701 28.05315399 117.12406921 28.0478363 C118.30491592 28.04776077 119.48576263 28.04768524 120.70239258 28.04760742 C121.73941818 28.04538681 122.77644379 28.0431662 123.84489441 28.0408783 C126.56554388 28.15603288 129.03759557 28.54710906 131.68603516 29.16113281 C131.68603516 29.82113281 131.68603516 30.48113281 131.68603516 31.16113281 C132.67603516 31.16113281 133.66603516 31.16113281 134.68603516 31.16113281 C141.99741368 38.47251134 141.0199014 47.99237332 141.10009766 57.63378906 C141.11909292 59.09225951 141.13885687 60.55072012 141.15933228 62.00917053 C141.21163383 65.93303956 141.25138992 69.85693717 141.28773499 73.78098297 C141.31104675 76.22484844 141.3373189 78.66866388 141.36462402 81.11248779 C141.47657115 91.15110312 141.56766592 101.18977128 141.6463623 111.22869873 C141.67797142 115.23735312 141.71393365 119.24595274 141.75144386 123.2545557 C141.82602151 131.2497263 141.88205307 139.24475756 141.91619873 147.24020386 C141.92798015 149.92658526 141.9462376 152.61280158 141.97003174 155.29910278 C141.99959824 159.0266683 142.00963272 162.75377656 142.01416016 166.48144531 C142.0264566 167.56982193 142.03875305 168.65819855 142.05142212 169.77955627 C142.02752694 177.94073886 140.68414341 184.16302456 134.68603516 190.16113281 C124.6135353 194.95756131 111.44878039 193.30997464 100.54345703 193.30639648 C98.7158654 193.30939269 96.88827439 193.31279627 95.0606842 193.3165741 C90.12067643 193.32536891 85.180686 193.32775023 80.24067116 193.32838988 C77.14998318 193.32910267 74.05929956 193.33124126 70.96861267 193.3338871 C60.17438478 193.34312381 49.38016921 193.34722387 38.5859375 193.34643555 C28.54187108 193.3458344 18.49785829 193.3563977 8.45380545 193.37217921 C-0.18767247 193.3852707 -8.82913288 193.3906188 -17.47062063 193.38998014 C-22.62399276 193.38972573 -27.77731712 193.39254554 -32.93067932 193.40315819 C-37.77673347 193.4128669 -42.6226944 193.41289937 -47.46875191 193.40564156 C-49.24159952 193.40459934 -51.01445303 193.40693695 -52.78729057 193.41300201 C-76.11944393 193.48762235 -76.11944393 193.48762235 -82.31396484 188.16113281 C-82.99664622 186.83592779 -83.66466895 185.503011 -84.31396484 184.16113281 C-85.30396484 183.50113281 -86.29396484 182.84113281 -87.31396484 182.16113281 C-88.74794961 177.76597367 -88.44738275 173.11400237 -88.42480469 168.53637695 C-88.4244434 167.67733953 -88.42408211 166.81830212 -88.42370987 165.93323326 C-88.42094641 163.0833838 -88.41062989 160.2336189 -88.39990234 157.38378906 C-88.39561683 155.36621653 -88.39158303 153.34864346 -88.38778687 151.33106995 C-88.37298698 144.94103874 -88.34557177 138.55110099 -88.31396484 132.16113281 C-88.3088942 131.1346035 -88.30382355 130.10807419 -88.29859924 129.05043793 C-88.23110447 115.92642792 -88.1265778 102.80297431 -87.99658203 89.67944336 C-87.95616372 85.55219198 -87.92179785 81.42494961 -87.89208984 77.29760742 C-87.85534049 72.19468359 -87.8091432 67.09193053 -87.75590134 61.98915291 C-87.73746771 60.07501158 -87.72231974 58.1608355 -87.71062088 56.24664116 C-87.69382796 53.61305512 -87.66485415 50.97987392 -87.6328125 48.34643555 C-87.63065231 47.57124573 -87.62849213 46.79605591 -87.62626648 45.99737549 C-87.56762487 42.24375698 -87.41220218 39.34768989 -85.31396484 36.16113281 C-84.65396484 36.16113281 -83.99396484 36.16113281 -83.31396484 36.16113281 C-83.12833984 35.58363281 -82.94271484 35.00613281 -82.75146484 34.41113281 C-80.60241715 31.04740599 -77.99829659 29.46936 -74.31396484 28.16113281 C-69.70620882 27.61624477 -65.13959621 27.6955455 -60.50537109 27.77050781 C-59.1701696 27.77797944 -57.83495704 27.78366801 -56.4997406 27.78765869 C-53.00604328 27.80284302 -49.51302396 27.84206022 -46.01959229 27.88647461 C-42.44658578 27.92758459 -38.87346842 27.94570303 -35.30029297 27.96582031 C-28.30457388 28.00856339 -21.30930202 28.07672539 -14.31396484 28.16113281 C-14.33716797 27.08734375 -14.36037109 26.01355469 -14.38427734 24.90722656 C-14.40305108 23.47103566 -14.42124955 22.03483716 -14.43896484 20.59863281 C-14.45572266 19.89416016 -14.47248047 19.1896875 -14.48974609 18.46386719 C-14.53405788 13.65603834 -14.06493672 9.66611674 -12.31396484 5.16113281 C-11.32396484 4.83113281 -10.33396484 4.50113281 -9.31396484 4.16113281 C-8.98396484 3.17113281 -8.65396484 2.18113281 -8.31396484 1.16113281 C-5.50081764 -0.24544079 -3.14651359 0.0183042 0 0 Z M-11.08349609 7.23535156 C-12.85488276 11.44731542 -12.88326834 15.44501828 -13.00146484 19.97363281 C-13.035625 20.85728516 -13.06978516 21.7409375 -13.10498047 22.65136719 C-13.18706918 24.82085448 -13.25220363 26.99097171 -13.31396484 29.16113281 C-14.04788452 29.16255783 -14.7818042 29.16398285 -15.53796387 29.16545105 C-22.48176877 29.18334019 -29.42507126 29.22512813 -36.36855316 29.29322338 C-39.93768076 29.32739759 -43.5063847 29.35258822 -47.07568359 29.35668945 C-50.52554877 29.36099333 -53.97445987 29.38962506 -57.42402649 29.43456459 C-59.3691395 29.45372164 -61.31444552 29.44820251 -63.25964355 29.44218445 C-70.3258129 29.55779058 -76.12474278 29.96217928 -81.31396484 35.16113281 C-85.12625532 39.82480602 -85.91047042 43.57544151 -85.91235352 49.44165039 C-85.92809481 50.2544087 -85.9438361 51.06716702 -85.9600544 51.90455437 C-86.00719475 54.60084426 -86.0261085 57.29653605 -86.04443359 59.99316406 C-86.07114409 61.91162675 -86.09934819 63.83006916 -86.12895203 65.74848938 C-86.2018351 70.84918835 -86.24877572 75.94979514 -86.28832245 81.05084991 C-86.31356447 84.11256932 -86.34530385 87.1741468 -86.37945557 90.23577881 C-86.51363134 102.39041803 -86.58535089 114.5441248 -86.60913086 126.69946289 C-86.61818248 130.86171241 -86.63956729 135.02364853 -86.6706543 139.18579102 C-86.70905383 144.3317574 -86.7278818 149.47744034 -86.73241234 154.62354469 C-86.73724659 156.55118505 -86.74876886 158.4788219 -86.76745033 160.40637779 C-86.79181571 163.07066247 -86.79088998 165.73383131 -86.78393555 168.39819336 C-86.79674561 169.1714949 -86.80955566 169.94479645 -86.82275391 170.74153137 C-86.77006905 176.29067191 -85.37679618 180.51151304 -82.31396484 185.16113281 C-79.93553907 187.56519665 -79.93553907 187.56519665 -77.31396484 189.16113281 C-76.49473856 189.69792459 -76.49473856 189.69792459 -75.65896225 190.24556065 C-72.24755809 191.57749675 -68.90348582 191.44674118 -65.29400635 191.43528748 C-64.4795227 191.44052415 -63.66503906 191.44576083 -62.82587409 191.4511562 C-60.0930137 191.46617389 -57.36034025 191.46686174 -54.62744141 191.4675293 C-52.66941003 191.47514966 -50.71138164 191.48357695 -48.75335693 191.49275208 C-43.43090659 191.51471779 -38.1085137 191.52349893 -32.78602314 191.52857852 C-29.46052937 191.53222006 -26.1350507 191.53845911 -22.80956268 191.54557991 C-11.20718219 191.57008293 0.39515355 191.58312786 11.99755859 191.58666992 C22.81076321 191.59030443 33.62368384 191.62019171 44.43680167 191.66207451 C53.72101685 191.696774 63.00513792 191.71221832 72.28941751 191.71291596 C77.8341541 191.71370897 83.3786016 191.72245895 88.92327118 191.75091362 C94.1403647 191.77708773 99.35692933 191.77930291 104.57405853 191.76325798 C106.48643141 191.7614429 108.39883464 191.76813951 110.31114197 191.78407669 C112.92743242 191.8045474 115.54187413 191.79398049 118.15814209 191.77586365 C118.91030054 191.78906362 119.66245899 191.80226358 120.43741012 191.81586355 C126.25044648 191.72427611 130.14302542 189.73607863 134.68603516 186.16113281 C138.494055 182.06018836 139.81051099 179.0409584 139.8130188 173.49317932 C139.81583862 172.5335025 139.81865845 171.57382568 139.82156372 170.58506775 C139.81953949 169.53323807 139.81751526 168.48140839 139.81542969 167.39770508 C139.81718201 166.2882251 139.81893433 165.17874512 139.82073975 164.03564453 C139.82515682 160.34959366 139.82221736 156.66359047 139.81884766 152.97753906 C139.81952155 150.40657034 139.82049229 147.83560168 139.82174683 145.26463318 C139.82322426 139.85830017 139.82116653 134.451985 139.81640625 129.0456543 C139.81101036 122.84698802 139.81269178 116.64835487 139.81823266 110.44968945 C139.8233773 104.44884075 139.82275503 98.44800785 139.81985092 92.44715691 C139.81919026 89.91542493 139.81997949 87.3836921 139.82233047 84.85196114 C139.82804624 76.95413586 139.79555993 69.05825035 139.68603516 61.16113281 C139.67282982 60.1629591 139.65962448 59.16478539 139.64601898 58.13636398 C139.59761712 55.36326815 139.5193193 52.59301336 139.42773438 49.82104492 C139.41414949 49.02255662 139.40056461 48.22406832 139.38656807 47.4013834 C139.13240216 41.44940331 137.32217264 37.78997952 133.02537537 33.50506592 C126.71343347 29.22598262 120.4633478 29.4471068 113.03369141 29.48925781 C111.0543203 29.46978352 109.07494921 29.45030598 107.0955801 29.43062973 C104.34529749 29.40957459 101.5951973 29.41132899 98.84484863 29.41253662 C94.00155484 29.40929328 89.15841524 29.36666586 84.31529236 29.32879639 C81.7401086 29.31097289 79.16485945 29.30074401 76.58961487 29.29864502 C75.43428757 29.29483826 74.27896027 29.29103149 73.08862305 29.28710938 C72.06684464 29.28664612 71.04506622 29.28618286 69.99232483 29.28570557 C67.68603516 29.16113281 67.68603516 29.16113281 66.68603516 28.16113281 C66.56578636 26.80526244 66.50659028 25.44383567 66.47509766 24.08300781 C66.44673828 23.2515625 66.41837891 22.42011719 66.38916016 21.56347656 C66.33754298 19.81107337 66.29313758 18.05844122 66.25634766 16.30566406 C66.07944966 11.52204749 65.91343202 7.96327158 62.68603516 4.16113281 C59.30827767 1.98624332 56.49652181 1.90316907 52.52807617 1.88647461 C51.28320938 1.8769426 50.03834259 1.86741058 48.75575256 1.85758972 C47.40048189 1.85785116 46.0452112 1.85878827 44.68994141 1.86035156 C43.29515963 1.85646265 41.90037904 1.85212758 40.50559998 1.84736633 C37.58450478 1.83991181 34.66353047 1.84018977 31.74243164 1.84545898 C28.00542297 1.85125264 24.26891009 1.834322 20.53198338 1.81111431 C17.65200423 1.7963579 14.77214397 1.79550783 11.89213371 1.79862404 C10.51466833 1.79811178 9.13719613 1.79289193 7.75976753 1.78281212 C5.83101329 1.77042954 3.90215864 1.77919198 1.97338867 1.78881836 C0.87736832 1.78818893 -0.21865204 1.78755951 -1.34788513 1.78691101 C-5.64782526 2.32942217 -8.29165777 3.96279936 -11.08349609 7.23535156 Z " fill="#216E95" transform="translate(153.31396484375,83.8388671875)"/>
<path d="M0 0 C1 2 1 2 0.3984375 4.1015625 C-1.29090048 8.26687677 -2.97625989 12.14425375 -5.5 15.875 C-10.04282319 22.81542432 -12.12011528 30.72925189 -12.72265625 38.9296875 C-13.01739289 41.12983423 -13.63703952 42.83527523 -14.5 44.875 C-16.21234033 49.00281558 -16.47953799 52.95032588 -16.69140625 57.38671875 C-17.02687572 60.22759316 -17.92490467 62.35891676 -19 65 C-19.9883614 69.69308027 -20.30171202 74.40799682 -20.5625 79.1875 C-20.6042334 79.93926514 -20.6459668 80.69103027 -20.68896484 81.46557617 C-21.69822421 97.44518982 -21.69822421 97.44518982 -19.40234375 113.16015625 C-19 115 -19 115 -20 118 C-19.34 118.33 -18.68 118.66 -18 119 C-18.03480469 120.03447266 -18.03480469 120.03447266 -18.0703125 121.08984375 C-18.18946743 127.29441142 -17.8949537 133.05233511 -16 139 C-15.67 139.33 -15.34 139.66 -15 140 C-14.76572222 142.01594582 -14.58663876 144.038474 -14.4375 146.0625 C-14.35371094 147.16722656 -14.26992187 148.27195313 -14.18359375 149.41015625 C-14.12300781 150.26480469 -14.06242188 151.11945313 -14 152 C-13.34 152 -12.68 152 -12 152 C-11.66226562 153.07121094 -11.32453125 154.14242187 -10.9765625 155.24609375 C-10.52643751 156.64335675 -10.07589504 158.04048531 -9.625 159.4375 C-9.40328125 160.14455078 -9.1815625 160.85160156 -8.953125 161.58007812 C-8.35897394 163.4062189 -7.68450381 165.20577032 -7 167 C-6.34 167.33 -5.68 167.66 -5 168 C-4.0540932 169.94627491 -3.19016834 171.93294861 -2.375 173.9375 C-1.92898437 175.01902344 -1.48296875 176.10054687 -1.0234375 177.21484375 C0 180 0 180 0 182 C-0.66 182 -1.32 182 -2 182 C-25.20401524 137.76169562 -32.15409123 88.45899411 -18 40 C-13.62388387 25.98283797 -7.70852829 12.51446259 0 0 Z " fill="#0D81BE" transform="translate(25,88)"/>
<path d="M0 0 C0 0.66 0 1.32 0 2 C-3.55550827 1.31584502 -7.05964567 0.5099521 -10.5703125 -0.375 C-11.6325 -0.63796875 -12.6946875 -0.9009375 -13.7890625 -1.171875 C-15.99095065 -1.71847955 -18.19151321 -2.2704555 -20.390625 -2.828125 C-31.97150762 -5.67451061 -43.04368365 -6.16367908 -54.9375 -6.125 C-56.12279297 -6.12886719 -57.30808594 -6.13273438 -58.52929688 -6.13671875 C-70.97441014 -7.09989216 -70.97441014 -7.09989216 -82 -4 C-83.66254698 -3.81296346 -85.33082626 -3.67609655 -87 -3.5625 C-96.05408208 -2.90048588 -96.05408208 -2.90048588 -104.34375 0.43359375 C-107.36716154 2.21651732 -110.26635879 3.17990764 -113.625 4.1875 C-114.75164062 4.53167969 -115.87828125 4.87585937 -117.0390625 5.23046875 C-120 6 -120 6 -123 6 C-123.28875 6.61875 -123.5775 7.2375 -123.875 7.875 C-125 10 -125 10 -127 12 C-128.32 12 -129.64 12 -131 12 C-131.48082031 12.48082031 -131.96164063 12.96164063 -132.45703125 13.45703125 C-134.4919065 15.4919065 -135.85853886 15.48250282 -138.6875 15.6875 C-139.89986328 15.78611328 -139.89986328 15.78611328 -141.13671875 15.88671875 C-142.05904297 15.94279297 -142.05904297 15.94279297 -143 16 C-143 16.66 -143 17.32 -143 18 C-143.886875 18.268125 -144.77375 18.53625 -145.6875 18.8125 C-148.99085055 19.87317799 -148.99085055 19.87317799 -151.6875 21.625 C-154 23 -154 23 -157 23 C-157.33 23.99 -157.66 24.98 -158 26 C-159.70703125 27.24609375 -159.70703125 27.24609375 -161.8125 28.4375 C-165.02011801 30.34042081 -167.39993267 32.31326376 -170 35 C-170.886875 35.515625 -171.77375 36.03125 -172.6875 36.5625 C-178.09314278 39.98607376 -183.15503798 46.31007596 -186 52 C-186.99 52 -187.98 52 -189 52 C-189.33 52.99 -189.66 53.98 -190 55 C-190.66 55 -191.32 55 -192 55 C-192.2475 55.5775 -192.495 56.155 -192.75 56.75 C-194.18299988 59.32939979 -195.78424676 61.06121592 -198 63 C-198.66 63 -199.32 63 -200 63 C-189.00668139 36.85891098 -152.11138573 15.21610798 -127.23388672 4.88720703 C-111.1688551 -1.49315635 -95.1297111 -5.7264294 -78 -8 C-77.25306885 -8.1016748 -76.5061377 -8.20334961 -75.73657227 -8.30810547 C-50.67438706 -11.43217744 -23.84635009 -8.27998267 0 0 Z " fill="#2977A1" transform="translate(237,9)"/>
<path d="M0 0 C1.22025627 0.00334608 1.22025627 0.00334608 2.46516418 0.00675976 C3.32285904 0.00519977 4.18055389 0.00363978 5.0642395 0.00203252 C7.96091897 -0.00198124 10.85754675 0.00121361 13.75422668 0.00434887 C15.82169119 0.002995 17.88915546 0.00121515 19.95661926 -0.00096118 C25.58868496 -0.00553716 31.22073243 -0.00374528 36.85279846 -0.0005821 C42.73270214 0.00194066 48.6126042 -0.0003958 54.49250793 -0.00196826 C64.36881288 -0.00379021 74.24511037 -0.001383 84.12141418 0.00337231 C95.55771483 0.00881498 106.99399764 0.00705234 118.43029785 0.00154591 C128.22982944 -0.00298452 138.02935564 -0.00363612 147.82888794 -0.00101542 C153.6902343 0.00054774 159.55157226 0.00074004 165.41291809 -0.00255191 C170.92199035 -0.00542961 176.43103951 -0.00345682 181.94010925 0.00234234 C183.96828676 0.00367049 185.99646619 0.00327491 188.02464294 0.00107968 C190.78088507 -0.00162969 193.53705193 0.00174667 196.29328918 0.00675976 C197.51354546 0.00341368 197.51354546 0.00341368 198.75845337 0 C204.26507685 0.01959357 204.26507685 0.01959357 205.37922668 1.13374341 C205.53077638 3.27584 205.60100414 5.42397802 205.62922668 7.57124341 C205.66789856 9.33274731 205.66789856 9.33274731 205.70735168 11.12983716 C205.54492981 12.61677075 205.54492981 12.61677075 205.37922668 14.13374341 C204.38922668 14.79374341 203.39922668 15.45374341 202.37922668 16.13374341 C202.70922668 11.51374341 203.03922668 6.89374341 203.37922668 2.13374341 C135.06922668 2.46374341 66.75922668 2.79374341 -3.62077332 3.13374341 C-3.62077332 8.324321 -3.60127631 12.23122843 -2.62077332 17.13374341 C-3.61077332 17.13374341 -4.60077332 17.13374341 -5.62077332 17.13374341 C-6.66869857 13.6988773 -6.75449517 10.52656304 -6.74577332 6.94624341 C-6.74835144 5.88018872 -6.75092957 4.81413403 -6.75358582 3.71577466 C-6.50988404 -1.02207461 -4.17528529 0.01485643 0 0 Z " fill="#0E3349" transform="translate(80.62077331542969,244.8662565946579)"/>
<path d="M0 0 C39.23240217 17.67613724 70.17338982 55.68216397 85.34301758 95.31225586 C91.20233961 111.28226984 96.38778371 128.80825549 96 146 C95.34 146 94.68 146 94 146 C93.87882812 144.97519531 93.75765625 143.95039063 93.6328125 142.89453125 C93.46389541 141.53381021 93.2946048 140.1731355 93.125 138.8125 C93.04636719 138.13896484 92.96773438 137.46542969 92.88671875 136.77148438 C92.39033898 132.85772082 91.4948996 129.6255611 90 126 C89.2112389 122.2750654 88.54688283 118.53736536 87.87890625 114.7890625 C86.9802742 110.9149599 85.58846459 107.63770517 84 104 C83.45743466 102.07131883 82.91594594 100.14201092 82.41577148 98.2019043 C80.5200549 90.92115442 77.96863751 84.33528157 74.4375 77.6875 C74.06157715 76.97674316 73.6856543 76.26598633 73.29833984 75.53369141 C71.23056442 71.78307466 69.12066169 68.97458817 66 66 C64.98046875 64.17578125 64.98046875 64.17578125 64.1875 62.3125 C62.17076431 57.99555172 59.4216273 54.53784469 56.390625 50.8828125 C55 49 55 49 55 47 C54.34 47 53.68 47 53 47 C50.63785462 44.35153397 49.12827868 42.38483604 48 39 C46.00334402 37.32932867 44.00348966 35.66247014 42 34 C42 33.34 42 32.68 42 32 C41.01 31.67 40.02 31.34 39 31 C37.878845 29.878845 36.76233032 28.75259867 35.671875 27.6015625 C32.67283619 24.72865149 29.30952025 22.28741473 26.01171875 19.76953125 C25.34785156 19.18558594 24.68398438 18.60164063 24 18 C24 17.34 24 16.68 24 16 C22.8553125 15.7834375 22.8553125 15.7834375 21.6875 15.5625 C19 15 19 15 16 14 C16 13.34 16 12.68 16 12 C15.2575 11.7525 14.515 11.505 13.75 11.25 C10.74020283 9.88191038 9.32189894 8.32189894 7 6 C4.71772705 4.54764449 2.38476969 3.28410676 0 2 C0 1.34 0 0.68 0 0 Z " fill="#2573A0" transform="translate(264,21)"/>
<path d="M0 0 C0.33 0 0.66 0 1 0 C0.01519973 32.49840881 -11.28980664 64.47457543 -30 91 C-30.71800781 92.02222656 -31.43601562 93.04445313 -32.17578125 94.09765625 C-37.20606209 101.02211034 -42.71001669 107.36970054 -48.61474609 113.54736328 C-49.94882645 114.94633722 -51.26580729 116.3615567 -52.58203125 117.77734375 C-57.8257075 123.25686751 -63.3286546 127.9976639 -69.375 132.5625 C-70.05328857 133.07554687 -70.73157715 133.58859375 -71.43041992 134.1171875 C-74.83233981 136.6223105 -77.93852989 138.67492577 -82 140 C-78.36038631 135.40531037 -74.92171878 132.24624005 -70 129 C-69.11423764 127.98506396 -68.26008122 126.94178502 -67.4375 125.875 C-64.85887035 122.83353939 -63.56008219 122.42403288 -60 121 C-58.28859531 119.03814584 -56.62126675 117.03697617 -55 115 C-51.5 112 -51.5 112 -49 112 C-48.731875 111.195625 -48.46375 110.39125 -48.1875 109.5625 C-47.795625 108.716875 -47.40375 107.87125 -47 107 C-46.01 106.67 -45.02 106.34 -44 106 C-43.505 104.515 -43.505 104.515 -43 103 C-42 102 -41 101 -40 100 C-38.82425289 97.90010348 -38.82425289 97.90010348 -38 96 C-37.34 96 -36.68 96 -36 96 C-35.814375 95.13375 -35.814375 95.13375 -35.625 94.25 C-34.22602815 89.21370134 -31.67582529 86.67582529 -28 83 C-26.70480005 80.83379456 -26.70480005 80.83379456 -26 79 C-25.34 79 -24.68 79 -24 79 C-23.81824219 78.33613281 -23.63648438 77.67226563 -23.44921875 76.98828125 C-22.08324528 72.18986161 -20.65194226 68.24310761 -18 64 C-17.03447812 61.68023965 -16.13613774 59.34235116 -15.2578125 56.98828125 C-14.15074191 54.35812907 -12.90402921 51.93427922 -11.56640625 49.41796875 C-8.72941813 43.79148439 -7.20675407 38.12311101 -5.8125 32 C-5.55766846 30.91654297 -5.30283691 29.83308594 -5.0402832 28.71679688 C-3.19046182 20.56483783 -2.00708871 12.48075998 -1.32421875 4.15625 C-1 1 -1 1 0 0 Z " fill="#1F6F9C" transform="translate(359,192)"/>
<path d="M0 0 C1.17461792 -0.00637985 2.34923584 -0.0127597 3.55944824 -0.01933289 C4.83340454 -0.02044571 6.10736084 -0.02155853 7.41992188 -0.02270508 C8.72191528 -0.02603348 10.02390869 -0.02936188 11.36535645 -0.03279114 C14.12264841 -0.03878196 16.87990902 -0.04063104 19.63720703 -0.04003906 C23.17492031 -0.03993733 26.7124334 -0.05360148 30.25009918 -0.07081127 C33.61921008 -0.08458345 36.98828314 -0.08401935 40.35742188 -0.08520508 C41.63137817 -0.09239059 42.90533447 -0.09957611 44.21789551 -0.10697937 C45.97982239 -0.10236443 45.97982239 -0.10236443 47.77734375 -0.09765625 C49.33382629 -0.09979378 49.33382629 -0.09979378 50.92175293 -0.10197449 C53.38867188 0.14526367 53.38867188 0.14526367 55.38867188 2.14526367 C55.6315918 4.46777344 55.6315918 4.46777344 55.61914062 7.33666992 C55.61720703 8.3634082 55.61527344 9.39014648 55.61328125 10.44799805 C55.59491211 12.06158203 55.59491211 12.06158203 55.57617188 13.70776367 C55.57552734 14.78735352 55.57488281 15.86694336 55.57421875 16.97924805 C55.52881785 25.00511769 55.52881785 25.00511769 54.38867188 26.14526367 C52.45560689 26.23922424 50.51908349 26.26269885 48.58374023 26.25878906 C46.7219236 26.25867577 46.7219236 26.25867577 44.82249451 26.25856018 C43.45783448 26.25345278 42.09317485 26.24823677 40.72851562 26.24291992 C39.33989004 26.24105568 37.9512638 26.2396318 36.56263733 26.2386322 C32.90146073 26.23480754 29.24032357 26.2249777 25.5791626 26.21392822 C21.84574924 26.20371299 18.11232954 26.19913434 14.37890625 26.1940918 C7.04881011 26.18335538 -0.28125349 26.16627959 -7.61132812 26.14526367 C-7.61132812 24.49526367 -7.61132812 22.84526367 -7.61132812 21.14526367 C-6.95132813 21.80526367 -6.29132813 22.46526367 -5.61132812 23.14526367 C-3.06229519 23.43832079 -3.06229519 23.43832079 -0.06005859 23.37231445 C1.10099396 23.37216339 2.26204651 23.37201233 3.45828247 23.37185669 C5.34581741 23.35637283 5.34581741 23.35637283 7.27148438 23.34057617 C9.19829544 23.33633133 9.19829544 23.33633133 11.16403198 23.33200073 C14.58029954 23.32436176 17.99639724 23.3047112 21.41259766 23.28259277 C24.8980886 23.26213992 28.38360698 23.25300023 31.86914062 23.24291992 C38.70906122 23.2214654 45.54884091 23.1862812 52.38867188 23.14526367 C52.38867188 16.54526367 52.38867188 9.94526367 52.38867188 3.14526367 C32.91867188 3.14526367 13.44867188 3.14526367 -6.61132812 3.14526367 C-6.61132812 8.75526367 -6.61132812 14.36526367 -6.61132812 20.14526367 C-6.94132813 20.14526367 -7.27132812 20.14526367 -7.61132812 20.14526367 C-7.61132812 13.87526367 -7.61132812 7.60526367 -7.61132812 1.14526367 C-4.96486758 -0.1779666 -2.96358476 0.01088665 0 0 Z " fill="#1A3A52" transform="translate(156.611328125,92.854736328125)"/>
<path d="M0 0 C1.875 0.1875 1.875 0.1875 4 1 C4.25394531 1.74636719 4.50789063 2.49273437 4.76953125 3.26171875 C6.40687047 6.90544824 8.58544517 8.30916041 11.8125 10.625 C12.85019531 11.38039063 13.88789062 12.13578125 14.95703125 12.9140625 C16.85805872 14.21720585 18.79610181 15.46961062 20.78125 16.640625 C23.21817087 18.13366807 24.37701715 19.68145307 26 22 C26.66 22.33 27.32 22.66 28 23 C28 23.66 28 24.32 28 25 C28.53109375 25.25910156 29.0621875 25.51820313 29.609375 25.78515625 C32.53001499 27.26933768 35.39341052 28.83325591 38.25 30.4375 C39.32765625 31.03433594 40.4053125 31.63117188 41.515625 32.24609375 C42.33546875 32.82488281 43.1553125 33.40367187 44 34 C44 34.99 44 35.98 44 37 C44.64066406 37.18175781 45.28132813 37.36351562 45.94140625 37.55078125 C51.13481682 39.06004363 56.13588856 40.61969015 61 43 C61.33 43.66 61.66 44.32 62 45 C63.740742 45.77191813 63.740742 45.77191813 65.875 46.375 C69.32482863 47.45273296 72.69066998 48.63671837 76.0625 49.9375 C86.86158794 53.87403904 97.91851887 56.2178605 109.3046875 57.60546875 C112 58 112 58 114 59 C114 59.66 114 60.32 114 61 C67.6657331 55.18457671 31.33576568 35.07066945 -1 2 C-0.67 1.34 -0.34 0.68 0 0 Z " fill="#2375A7" transform="translate(46,299)"/>
<path d="M0 0 C0.99 0.33 1.98 0.66 3 1 C7.51263423 10.30302908 7.60358886 20.32964159 7.609375 30.43359375 C7.6245398 32.01805741 7.64137784 33.60250581 7.65975952 35.18693542 C7.70374979 39.40146916 7.72385838 43.61578846 7.73862457 47.830513 C7.75770521 52.20335739 7.79806586 56.57601147 7.83544922 60.94873047 C7.91250613 70.49513273 7.95476968 80.04150966 7.99031067 89.5881424 C8.00542198 93.34963289 8.02574003 97.11109238 8.04589844 100.87255859 C8.08553046 108.45668564 8.11035236 116.04078447 8.125 123.625 C8.12786011 124.76242645 8.13072021 125.89985291 8.13366699 127.07174683 C8.13933163 130.22755526 8.13763713 133.38325475 8.1328125 136.5390625 C8.13477631 137.45197556 8.13674011 138.36488861 8.13876343 139.3054657 C8.13567169 140.13745987 8.13257996 140.96945404 8.12939453 141.82666016 C8.12820114 142.89939682 8.12820114 142.89939682 8.12698364 143.99380493 C7.99370186 146.09950335 7.57323158 147.97332994 7 150 C6.34 150 5.68 150 5 150 C4.505 150.99 4.505 150.99 4 152 C4.16233124 151.28019958 4.32466248 150.56039917 4.49191284 149.81878662 C4.98122876 147.10413984 5.12687652 144.65335659 5.12939453 141.89941406 C5.1324913 140.89145782 5.13558807 139.88350159 5.13877869 138.84500122 C5.13680984 137.74630707 5.134841 136.64761292 5.1328125 135.515625 C5.13426773 134.34369598 5.13572296 133.17176697 5.13722229 131.96432495 C5.13910152 128.73554424 5.13594466 125.50682632 5.12917709 122.27805328 C5.1249959 120.24801171 5.12203363 118.21797124 5.11929321 116.18792725 C5.10351418 105.79182004 5.0568682 95.39595511 5 85 C4.99574257 84.19134995 4.99148514 83.38269989 4.98709869 82.54954529 C4.92955767 71.70081159 4.84823793 60.85257622 4.73553467 50.00427246 C4.70217914 46.75925478 4.67536509 43.51428405 4.65411377 40.26916504 C4.62837104 36.42161233 4.58810599 32.5744727 4.53693962 28.72717667 C4.52037573 27.31064893 4.50869204 25.89405408 4.50235176 24.4774437 C4.45780472 15.48161911 4.09191478 8.63787217 -1 1 C-0.67 0.67 -0.34 0.34 0 0 Z " fill="#1083BE" transform="translate(289,115)"/>
<path d="M0 0 C1.57454841 3.14909681 1.0788632 6.50537031 1.02172852 9.95825195 C1.01212097 10.78358932 1.00251343 11.6089267 0.99261475 12.45927429 C0.95938801 15.2190233 0.91901426 17.97862437 0.87890625 20.73828125 C0.85453243 22.69027571 0.83069288 24.6422769 0.80735779 26.59428406 C0.74424749 31.78360069 0.675498 36.97282595 0.60510254 42.16204834 C0.27123063 66.85182802 -0.05217027 91.54149961 -0.09239388 116.23381615 C-0.09587322 118.21512383 -0.10094631 120.19642941 -0.10769463 122.17772865 C-0.116175 124.91172272 -0.11788655 127.64563331 -0.11743164 130.37963867 C-0.12080347 131.18346418 -0.1241753 131.9872897 -0.12764931 132.81547356 C-0.11510375 138.47959493 -0.11510375 138.47959493 1 144 C2.30915279 145.03145371 3.64082143 146.03542166 5 147 C5 147.99 5 148.98 5 150 C5.66 150.33 6.32 150.66 7 151 C6.01 151 5.02 151 4 151 C3.67 150.01 3.34 149.02 3 148 C2.01 148 1.02 148 0 148 C-3.13555655 144.86444345 -2.32607706 140.98366161 -2.35058594 136.76904297 C-2.36384415 135.80887772 -2.37710236 134.84871246 -2.39076233 133.85945129 C-2.43212354 130.65372665 -2.45872664 127.44807387 -2.484375 124.2421875 C-2.50820965 121.98673966 -2.53257169 119.73129734 -2.55743408 117.4758606 C-2.60754456 112.71245973 -2.65022517 107.9490611 -2.68798828 103.18554688 C-2.73607876 97.20629723 -2.80347554 91.22746041 -2.87647247 85.24847031 C-3.14349752 62.68583539 -3.24050533 40.17328324 -2.078125 17.6328125 C-2.03418358 16.77307705 -1.99024216 15.9133416 -1.94496918 15.02755356 C-1.81958662 12.65728438 -1.68491632 10.28784568 -1.54394531 7.91845703 C-1.50455086 7.22307453 -1.4651564 6.52769203 -1.42456818 5.81123734 C-1.11908575 1.11908575 -1.11908575 1.11908575 0 0 Z " fill="#1082BC" transform="translate(66,122)"/>
<path d="M0 0 C1.20825422 -0.00640819 1.20825422 -0.00640819 2.44091761 -0.01294583 C5.13148144 -0.02116103 7.82047536 0.00628365 10.51089478 0.03364563 C12.44278934 0.03505642 14.37468658 0.03426351 16.30657959 0.03143311 C21.54596182 0.02999877 26.78477148 0.05939169 32.02402067 0.09430289 C37.50127477 0.1255633 42.97854204 0.1284969 48.45587158 0.13442993 C58.82559356 0.14996925 69.19505191 0.19099911 79.56465781 0.24117738 C91.37106469 0.29706792 103.17748418 0.32455665 114.98399043 0.34965456 C139.26865807 0.40191473 163.55309173 0.48985893 187.83755493 0.60127258 C187.83755493 0.93127258 187.83755493 1.26127258 187.83755493 1.60127258 C186.83534251 1.60366094 185.83313009 1.60604929 184.8005476 1.60851002 C160.43978311 1.66724593 136.07911799 1.74309194 111.71846294 1.8369875 C99.93793824 1.88199615 88.1574441 1.92139905 76.37686157 1.94770813 C66.11159904 1.97064722 55.84643285 2.00399922 45.58124667 2.04997414 C40.14346647 2.07396165 34.70578201 2.09265413 29.26795006 2.09888649 C24.15357461 2.10491241 19.03944433 2.12482143 13.92515945 2.1555481 C12.04458248 2.16436847 10.16397352 2.16804269 8.28337669 2.16628075 C5.72238862 2.16463839 3.16215723 2.1812375 0.60127258 2.20254517 C-0.52372201 2.1952738 -0.52372201 2.1952738 -1.67144376 2.18785554 C-5.643514 2.22627557 -5.643514 2.22627557 -9.08835125 4.01217937 C-10.2470771 5.72648342 -11.08771345 7.36504517 -11.84994507 9.28877258 C-12.28307007 10.38189758 -12.71619507 11.47502258 -13.16244507 12.60127258 C-13.49244507 12.60127258 -13.82244507 12.60127258 -14.16244507 12.60127258 C-14.49244507 14.25127258 -14.82244507 15.90127258 -15.16244507 17.60127258 C-15.49244507 17.60127258 -15.82244507 17.60127258 -16.16244507 17.60127258 C-16.33926967 13.09224531 -16.45350058 9.55855028 -14.16244507 5.60127258 C-9.63344285 1.01060101 -6.48861293 -0.12682232 0 0 Z " fill="#244154" transform="translate(90.16244506835938,120.39872741699219)"/>
<path d="M0 0 C0.680625 0.598125 1.36125 1.19625 2.0625 1.8125 C5.31674834 4.23587643 8.23936225 5.5252401 12 7 C12 7.66 12 8.32 12 9 C12.9075 9.2475 13.815 9.495 14.75 9.75 C18.12496123 11.04806201 19.74102121 12.21971841 22 15 C22 15.66 22 16.32 22 17 C22.886875 17.12375 23.77375 17.2475 24.6875 17.375 C27.72048297 17.94726094 30.18140577 18.78114844 33 20 C33.99 20.33 34.98 20.66 36 21 C38.23165645 21.84764037 40.46054398 22.70258629 42.6875 23.5625 C43.86699219 24.01753906 45.04648438 24.47257812 46.26171875 24.94140625 C47.16535156 25.29074219 48.06898438 25.64007813 49 26 C49 26.66 49 27.32 49 28 C52.63 28 56.26 28 60 28 C60.33 27.34 60.66 26.68 61 26 C61 26.66 61 27.32 61 28 C61.763125 27.979375 62.52625 27.95875 63.3125 27.9375 C66 28 66 28 69 29 C69.99 25.37 70.98 21.74 72 18 C72.66 18 73.32 18 74 18 C73.34 22.62 72.68 27.24 72 32 C59.2098886 36.26337047 39.20481172 26.79171696 27.8125 21.1875 C20.84624019 17.64728337 14.35968627 13.54397703 8 9 C7.16984375 8.42894531 6.3396875 7.85789063 5.484375 7.26953125 C1.33682038 4.33288856 1.33682038 4.33288856 0 3 C0 2.01 0 1.02 0 0 Z " fill="#153851" transform="translate(95,160)"/>
<path d="M0 0 C0.66 0.33 1.32 0.66 2 1 C2 29.38 2 57.76 2 87 C1.67 87 1.34 87 1 87 C0.67 59.28 0.34 31.56 0 3 C-1.98 5.97 -1.98 5.97 -4 9 C-5.625 10.875 -5.625 10.875 -7 12 C-7.66 12 -8.32 12 -9 12 C-9 12.66 -9 13.32 -9 14 C-10.69197851 15.22751382 -12.38874823 16.44938139 -14.1171875 17.625 C-16.26058911 19.11619961 -16.26058911 19.11619961 -18.8125 21.8125 C-19.534375 22.534375 -20.25625 23.25625 -21 24 C-21.66 24 -22.32 24 -23 24 C-23.33 25.65 -23.66 27.3 -24 29 C-24.33 28.34 -24.66 27.68 -25 27 C-26.32 27.33 -27.64 27.66 -29 28 C-29 28.66 -29 29.32 -29 30 C-30.175625 30.5775 -31.35125 31.155 -32.5625 31.75 C-35.41256905 33.1623788 -38.15312533 34.66791467 -40.875 36.3125 C-41.90625 36.869375 -42.9375 37.42625 -44 38 C-44.66 37.67 -45.32 37.34 -46 37 C-41.74153706 33.66888143 -37.41457831 30.59087239 -32.8125 27.75 C-17.4927021 18.63839187 -17.4927021 18.63839187 -6 6 C-5.34 6 -4.68 6 -4 6 C-3.566875 5.071875 -3.566875 5.071875 -3.125 4.125 C-2 2 -2 2 0 0 Z " fill="#1E3B52" transform="translate(284,151)"/>
<path d="M0 0 C1 2 1 2 0.3984375 4.1015625 C-1.29090048 8.26687677 -2.97625989 12.14425375 -5.5 15.875 C-9.84701707 22.47602592 -11.8504468 30.25201142 -13 38 C-13.66 38 -14.32 38 -15 38 C-15.66 41.3 -16.32 44.6 -17 48 C-17.66 48 -18.32 48 -19 48 C-18.95552734 49.74023438 -18.95552734 49.74023438 -18.91015625 51.515625 C-18.91108331 55.73191245 -19.57027365 59.61718926 -20.4375 63.75 C-24.31857184 83.25933667 -22.92591519 102.34900627 -21 122 C-21.99 122.495 -21.99 122.495 -23 123 C-30.20607199 80.98602672 -22.39862178 36.36319462 0 0 Z " fill="#2C769F" transform="translate(25,88)"/>
<path d="M0 0 C0 0.66 0 1.32 0 2 C-3.55550827 1.31584502 -7.05964567 0.5099521 -10.5703125 -0.375 C-11.6325 -0.63796875 -12.6946875 -0.9009375 -13.7890625 -1.171875 C-15.99095065 -1.71847955 -18.19151321 -2.2704555 -20.390625 -2.828125 C-31.97150762 -5.67451061 -43.04368365 -6.16367908 -54.9375 -6.125 C-56.12279297 -6.12886719 -57.30808594 -6.13273438 -58.52929688 -6.13671875 C-70.97441014 -7.09989216 -70.97441014 -7.09989216 -82 -4 C-83.66254698 -3.81296346 -85.33082626 -3.67609655 -87 -3.5625 C-95.48624211 -2.85897734 -103.45734595 -0.79945277 -111.55078125 1.828125 C-112.44152344 2.11171875 -113.33226563 2.3953125 -114.25 2.6875 C-115.08015625 2.95949219 -115.9103125 3.23148438 -116.765625 3.51171875 C-119 4 -119 4 -122 3 C-107.53257987 -2.36114991 -93.2874659 -5.91204268 -78 -8 C-77.24871826 -8.103125 -76.49743652 -8.20625 -75.72338867 -8.3125 C-50.66639085 -11.43243747 -23.84070371 -8.27802212 0 0 Z " fill="#166D98" transform="translate(237,9)"/>
<path d="M0 0 C0.76069113 0.00582568 1.52138226 0.01165137 2.30512464 0.01765358 C3.51437764 0.01509031 3.51437764 0.01509031 4.74805999 0.01247525 C7.46438515 0.00916645 10.18046631 0.02020679 12.89676893 0.03111184 C14.83792589 0.03167565 16.77908328 0.03135997 18.72024 0.03022683 C24.003048 0.02965115 29.28576586 0.04144016 34.56855285 0.05537474 C40.08455965 0.06784637 45.60056833 0.06904978 51.11658704 0.07142556 C61.5677924 0.07765085 72.0189561 0.09407581 82.47014308 0.11412454 C94.36596698 0.13645096 106.26179284 0.14746876 118.15763247 0.15751541 C142.63368937 0.17844116 167.10970924 0.21363746 191.58573377 0.25816262 C191.91573377 1.24816262 192.24573377 2.23816262 192.58573377 3.25816262 C191.92582095 3.09564287 191.26590812 2.93312312 190.58599794 2.76567852 C186.90328091 2.14272089 183.30341493 2.12333977 179.58150709 2.1379081 C178.78094225 2.13705368 177.98037742 2.13619925 177.15555304 2.13531893 C174.47625124 2.1336734 171.79701222 2.13917034 169.11771619 2.14463723 C167.19582086 2.14491932 165.27392543 2.14476092 163.35203016 2.14419472 C158.13554103 2.14390763 152.91907485 2.14979019 147.70259106 2.15676868 C142.25066069 2.16301682 136.7987298 2.16360718 131.34679639 2.16479409 C121.02320336 2.16790309 110.69962091 2.17611068 100.37603253 2.18614358 C88.62281635 2.19731808 76.86959967 2.20281854 65.1163795 2.20783901 C40.93949172 2.21829364 16.76261334 2.23588476 -7.41426623 2.25816262 C-4.91034569 -0.24575792 -3.4159497 0.01970795 0 0 Z " fill="#022E4C" transform="translate(88.41426622867584,121.74183738231659)"/>
<path d="M0 0 C0.33 0 0.66 0 1 0 C1.00238835 0.70053057 1.00477671 1.40106113 1.00723743 2.1228199 C1.06639305 19.17427303 1.14194669 36.22557467 1.23571491 53.27687263 C1.28066593 61.5227849 1.32008218 69.76865404 1.34643555 78.01464844 C1.36942127 85.20249863 1.40282566 92.39021228 1.44870156 99.57795417 C1.47262614 103.38324942 1.49135988 107.1884095 1.49761391 110.99377823 C1.5036683 114.57746217 1.52368054 118.16080031 1.55427551 121.74435616 C1.56722572 123.6826233 1.56548677 125.62097125 1.5632782 127.5592804 C1.62860988 133.60875805 1.82086377 137.8240029 5 143 C4.505 143.99 4.505 143.99 4 145 C0.20129107 142.67175904 0.20129107 142.67175904 -0.6217041 139.92521667 C-1.11989045 136.07293328 -1.13245993 132.26053821 -1.11523438 128.3840332 C-1.1152092 127.52566801 -1.11518402 126.66730282 -1.11515808 125.78292656 C-1.1133341 122.93467654 -1.1037945 120.08651334 -1.09375 117.23828125 C-1.08995976 115.22154267 -1.08634157 113.20480376 -1.08288574 111.18806458 C-1.03335305 89.54504361 -0.79529021 67.90374092 -0.53643799 46.26239014 C-0.47419903 41.0102351 -0.41499253 35.75804576 -0.35546875 30.50585938 C-0.23981 20.33720557 -0.12102049 10.16859132 0 0 Z " fill="#1F6B8F" transform="translate(66,124)"/>
<path d="M0 0 C0.33 0 0.66 0 1 0 C1 7.59 1 15.18 1 23 C-19.46 23 -39.92 23 -61 23 C-61 21.35 -61 19.7 -61 18 C-60.34 18.66 -59.68 19.32 -59 20 C-56.45096706 20.29305711 -56.45096706 20.29305711 -53.44873047 20.22705078 C-52.28767792 20.22689972 -51.12662537 20.22674866 -49.9303894 20.22659302 C-48.04285446 20.21110916 -48.04285446 20.21110916 -46.1171875 20.1953125 C-44.19037643 20.19106766 -44.19037643 20.19106766 -42.22463989 20.18673706 C-38.80837233 20.17909809 -35.39227463 20.15944752 -31.97607422 20.1373291 C-28.49058327 20.11687624 -25.0050649 20.10773655 -21.51953125 20.09765625 C-14.67961065 20.07620172 -7.83983096 20.04101753 -1 20 C-0.67 13.4 -0.34 6.8 0 0 Z " fill="#143149" transform="translate(210,96)"/>
<path d="M0 0 C1.32 0 2.64 0 4 0 C2.12665269 5.62004192 -5.0186064 8.1373892 -10 11 C-10.80953125 11.46921875 -11.6190625 11.9384375 -12.453125 12.421875 C-22.42799575 17.79295925 -35.78914397 23.21330074 -47.25 23.0625 C-48.14203125 23.05347656 -49.0340625 23.04445312 -49.953125 23.03515625 C-50.62859375 23.02355469 -51.3040625 23.01195312 -52 23 C-48.48375245 21.05841983 -46.0284349 20.81688932 -42 21 C-42 20.34 -42 19.68 -42 19 C-40.865625 18.75765625 -39.73125 18.5153125 -38.5625 18.265625 C-28.40938065 16.19883015 -28.40938065 16.19883015 -18.9609375 12.12890625 C-16.32041152 10.60876281 -13.56594816 9.36588769 -10.8125 8.0625 C-7.41804549 6.38448664 -4.56596456 4.92928944 -2 2.125 C-1.34 1.42375 -0.68 0.7225 0 0 Z " fill="#12314B" transform="translate(252,168)"/>
<path d="M0 0 C0.99 0.495 0.99 0.495 2 1 C2.50667613 2.65514202 3.0018844 4.31492773 3.4296875 5.9921875 C3.99562431 7.98459517 4.74356816 9.78726011 5.5625 11.6875 C7.61178551 16.9349129 7.73052897 22.42473734 8 28 C8.66 28 9.32 28 10 28 C10.33773438 29.07121094 10.67546875 30.14242187 11.0234375 31.24609375 C11.47356249 32.64335675 11.92410496 34.04048531 12.375 35.4375 C12.59671875 36.14455078 12.8184375 36.85160156 13.046875 37.58007812 C13.64102606 39.4062189 14.31549619 41.20577032 15 43 C15.66 43.33 16.32 43.66 17 44 C17.9459068 45.94627491 18.80983166 47.93294861 19.625 49.9375 C20.07101563 51.01902344 20.51703125 52.10054688 20.9765625 53.21484375 C22 56 22 56 22 58 C21.34 58 20.68 58 20 58 C-1.1627907 17.65327696 -1.1627907 17.65327696 0 0 Z " fill="#206E9F" transform="translate(3,212)"/>
<path d="M0 0 C-3.17151097 2.11434065 -5.86432861 3.01955937 -9.5 4.125 C-10.6446875 4.47820313 -11.789375 4.83140625 -12.96875 5.1953125 C-16 6 -16 6 -19 6 C-19.433125 6.928125 -19.433125 6.928125 -19.875 7.875 C-21 10 -21 10 -23 12 C-24.32 12 -25.64 12 -27 12 C-27.48082031 12.48082031 -27.96164063 12.96164063 -28.45703125 13.45703125 C-30.4919065 15.4919065 -31.85853886 15.48250282 -34.6875 15.6875 C-35.89986328 15.78611328 -35.89986328 15.78611328 -37.13671875 15.88671875 C-37.75160156 15.92410156 -38.36648437 15.96148437 -39 16 C-39 16.66 -39 17.32 -39 18 C-40.65 18 -42.3 18 -44 18 C-43.01 17.67 -42.02 17.34 -41 17 C-40.85288574 16.36658691 -40.70577148 15.73317383 -40.55419922 15.08056641 C-40 13 -40 13 -38.31689453 11.75146484 C-37.23577393 11.23640381 -37.23577393 11.23640381 -36.1328125 10.7109375 C-34.93519287 10.13581421 -34.93519287 10.13581421 -33.71337891 9.54907227 C-32.85921387 9.16162842 -32.00504883 8.77418457 -31.125 8.375 C-30.26181152 7.974021 -29.39862305 7.57304199 -28.50927734 7.15991211 C-23.1527941 4.74894202 -18.11321911 2.92041173 -12.2265625 2.31640625 C-7.78565859 1.68533043 -4.65135733 -0.26579185 0 0 Z " fill="#0D85C6" transform="translate(133,9)"/>
<path d="M0 0 C-4.49060972 3.65253475 -9.37660007 5.12496122 -14.8125 6.9375 C-16.3917627 7.46537109 -16.3917627 7.46537109 -18.00292969 8.00390625 C-29.77740601 11.7874333 -42.55852548 15 -55 15 C-55 14.34 -55 13.68 -55 13 C-53.45505859 12.74476563 -53.45505859 12.74476563 -51.87890625 12.484375 C-43.32015454 11.03832495 -34.87235291 9.3675088 -26.44750977 7.27050781 C-23.54775737 6.55610129 -21.00025781 6 -18 6 C-18 5.34 -18 4.68 -18 4 C-15.94037148 3.32451422 -13.87715678 2.65995688 -11.8125 2 C-10.66394531 1.62875 -9.51539063 1.2575 -8.33203125 0.875 C-5.35679188 0.09369447 -3.04716104 -0.18363306 0 0 Z " fill="#1C739F" transform="translate(253,345)"/>
<path d="M0 0 C2.95183101 2.95183101 3.08663988 5.95511947 4 10 C4.66 10 5.32 10 6 10 C8.53095565 18.47934381 10.44819638 26.87135447 11.75 35.625 C11.87737549 36.47739258 12.00475098 37.32978516 12.13598633 38.20800781 C12.6975381 42.16681009 13.16367232 45.9900281 13 50 C12.34 50 11.68 50 11 50 C10.87882812 48.97519531 10.75765625 47.95039063 10.6328125 46.89453125 C10.46389541 45.53381021 10.2946048 44.1731355 10.125 42.8125 C10.04636719 42.13896484 9.96773438 41.46542969 9.88671875 40.77148438 C9.39033898 36.85772082 8.4948996 33.6255611 7 30 C6.2112389 26.2750654 5.54688283 22.53736536 4.87890625 18.7890625 C4.22811179 15.98341529 3.59349018 13.87064363 2.4453125 11.30078125 C0.71539356 7.35002043 0.37338196 4.25655432 0 0 Z " fill="#1B719E" transform="translate(347,117)"/>
<path d="M0 0 C1.27043982 3.81131945 0.43667189 6.62854439 -0.375 10.4375 C-4.28142232 30.07096266 -2.93857323 49.21985053 -1 69 C-1.99 69.495 -1.99 69.495 -3 70 C-6.51858405 49.48539834 -9.62305695 19.24611391 0 0 Z " fill="#0B6B99" transform="translate(5,141)"/>
<path d="M0 0 C1.155 0.391875 2.31 0.78375 3.5 1.1875 C5.33269188 1.7936097 7.16613639 2.39744482 9 3 C10.19882813 3.39832031 11.39765625 3.79664063 12.6328125 4.20703125 C21.68642386 7.16220928 30.62681924 9.26422578 40 11 C43.00692619 11.63977153 46.00267261 12.31639902 49 13 C49 13.66 49 14.32 49 15 C36.81431743 13.33743412 24.74586816 11.61906012 13 7.875 C11.80056763 7.49480713 11.80056763 7.49480713 10.5769043 7.10693359 C5.14021949 5.28043897 5.14021949 5.28043897 4 3 C1.98330173 1.86649466 1.98330173 1.86649466 0 1 C0 0.67 0 0.34 0 0 Z " fill="#1F719F" transform="translate(111,345)"/>
<path d="M0 0 C1.485 0.99 1.485 0.99 3 2 C3 2.66 3 3.32 3 4 C2.34 4 1.68 4 1 4 C1.0714624 4.78955078 1.1429248 5.57910156 1.21655273 6.39257812 C2.31580811 20.70113894 2.11477667 35.03587884 2.06866455 49.37591553 C2.0582923 52.94982303 2.05383764 56.52373792 2.04882812 60.09765625 C2.03821838 67.0651219 2.0212328 74.03255881 2 81 C1.34 81 0.68 81 0 81 C0 54.27 0 27.54 0 0 Z " fill="#0B375A" transform="translate(76,156)"/>
<path d="M0 0 C3 1 3 1 3.93891907 2.68173218 C6.60142951 11.09657587 6.38086985 19.44609238 6.29296875 28.1640625 C6.28736297 29.80886444 6.28309752 31.45367145 6.28010559 33.09848022 C6.26873404 37.39587605 6.23933457 41.69296035 6.20599365 45.99023438 C6.1751255 50.38797799 6.16156472 54.78577268 6.14648438 59.18359375 C6.11445624 67.78920434 6.06335485 76.39456325 6 85 C5.67 85 5.34 85 5 85 C4.99413376 84.10321533 4.98826752 83.20643066 4.98222351 82.2824707 C4.92418715 73.80829011 4.85204791 65.33437002 4.76428509 56.86044312 C4.71966274 52.50447459 4.68038897 48.14859784 4.65356445 43.79248047 C4.62744992 39.58423004 4.58699067 35.37633432 4.53681374 31.16830444 C4.52019991 29.56729564 4.50865161 27.96622556 4.50238609 26.36514282 C4.46174419 16.92960722 4.42253485 9.13380227 -1 1 C-0.67 0.67 -0.34 0.34 0 0 Z " fill="#1379AE" transform="translate(289,115)"/>
<path d="M0 0 C0 0.33 0 0.66 0 1 C-0.85464844 1.06058594 -1.70929688 1.12117187 -2.58984375 1.18359375 C-3.69457031 1.26738281 -4.79929688 1.35117187 -5.9375 1.4375 C-7.03964844 1.51871094 -8.14179688 1.59992188 -9.27734375 1.68359375 C-11.91109903 1.70418084 -11.91109903 1.70418084 -13 3 C-14.66254698 3.18703654 -16.33082626 3.32390345 -18 3.4375 C-26.48624211 4.14102266 -34.45734595 6.20054723 -42.55078125 8.828125 C-43.44152344 9.11171875 -44.33226563 9.3953125 -45.25 9.6875 C-46.08015625 9.95949219 -46.9103125 10.23148438 -47.765625 10.51171875 C-50 11 -50 11 -53 10 C-42.08141092 5.95393012 -31.23344447 2.53140471 -19.75 0.5 C-18.81148193 0.32823242 -17.87296387 0.15646484 -16.90600586 -0.02050781 C-10.98622175 -0.99101622 -5.93002157 -0.91975845 0 0 Z " fill="#24729D" transform="translate(168,2)"/>
<path d="M0 0 C-1.875 3.875 -1.875 3.875 -3 5 C-5.27065801 5.06461918 -7.54339059 5.05679157 -9.81469727 5.02172852 C-10.52685394 5.01212097 -11.23901062 5.00251343 -11.9727478 4.99261475 C-14.33739773 4.95951349 -16.70186924 4.91922399 -19.06640625 4.87890625 C-20.70164858 4.85461598 -22.3368976 4.83077189 -23.97215271 4.80735779 C-28.28440949 4.74440797 -32.59654852 4.67537243 -36.90869141 4.60510254 C-41.30560933 4.53451724 -45.702611 4.4696417 -50.09960938 4.40429688 C-58.73316562 4.27514416 -67.36660587 4.13956724 -76 4 C-76 3.67 -76 3.34 -76 3 C-75.11716843 2.99191315 -74.23433685 2.98382629 -73.32475281 2.97549438 C-65.01093919 2.8976018 -56.69728869 2.81032735 -48.38368511 2.71247292 C-44.10942019 2.66249518 -39.83518017 2.61616535 -35.56079102 2.578125 C-31.43691718 2.54129074 -27.31325087 2.49493601 -23.18955421 2.44193649 C-21.61510668 2.42338262 -20.04061465 2.40827832 -18.46610069 2.39665604 C-16.26323502 2.37981034 -14.06084566 2.35078023 -11.8581543 2.31884766 C-10.60350876 2.30552399 -9.34886322 2.29220032 -8.05619812 2.2784729 C-4.75901603 1.97804216 -3.14842274 0 0 0 Z " fill="#083959" transform="translate(283,262)"/>
<path d="M0 0 C3.884765 1.29492167 4.48712508 2.87825411 6.625 6.3125 C7.23601563 7.27800781 7.84703125 8.24351562 8.4765625 9.23828125 C10 12 10 12 10.56640625 14.3046875 C10.70949219 14.86414063 10.85257813 15.42359375 11 16 C11.763125 16.268125 12.52625 16.53625 13.3125 16.8125 C17.37175124 18.60612264 18.17591234 21.00103859 20 25 C19.67 25.99 19.34 26.98 19 28 C0 7.77813505 0 7.77813505 0 0 Z " fill="#2473A2" transform="translate(25,271)"/>
<path d="M0 0 C0.51513657 0.35273483 1.03027313 0.70546967 1.5610199 1.06889343 C7.97420526 5.08607862 13.12868106 5.73567752 20.59765625 5.70703125 C21.67252792 5.72215256 22.7473996 5.73727386 23.85484314 5.75285339 C27.25761216 5.79553178 30.65949066 5.80454961 34.0625 5.8125 C36.38218481 5.8356596 38.70184868 5.86102795 41.02148438 5.88867188 C46.68099822 5.95132789 52.34016687 5.98641943 58 6 C58 6.33 58 6.66 58 7 C50.86511443 7.10166265 43.73041662 7.17157591 36.5949707 7.21972656 C34.16911844 7.23980571 31.74331437 7.26707475 29.31762695 7.30175781 C25.82491138 7.35043678 22.33283741 7.3730065 18.83984375 7.390625 C17.76041 7.41127014 16.68097626 7.43191528 15.5688324 7.45318604 C9.13739748 7.45509004 5.26560121 6.76906192 0 3 C0 2.01 0 1.02 0 0 Z " fill="#3B7D95" transform="translate(71,269)"/>
<path d="M0 0 C0.33 0 0.66 0 1 0 C1.0093457 1.26070312 1.01869141 2.52140625 1.02832031 3.8203125 C1.06837372 8.52460278 1.13417501 13.22824963 1.20751953 17.93212891 C1.23564035 19.96296892 1.25689886 21.99391657 1.27099609 24.02490234 C1.29254898 26.95465855 1.33926222 29.88313265 1.390625 32.8125 C1.39185364 33.71178223 1.39308228 34.61106445 1.39434814 35.53759766 C1.53677648 41.75148852 3.03739941 45.55917259 6 51 C5.67 51.66 5.34 52.32 5 53 C2.43745618 51.42940863 1.17278753 50.64457282 0.37818909 47.68037415 C0.02470399 45.17508689 -0.12064499 42.82897033 -0.11352539 40.30151367 C-0.11344986 39.40095749 -0.11337433 38.50040131 -0.11329651 37.57255554 C-0.10813522 36.6140419 -0.10297394 35.65552826 -0.09765625 34.66796875 C-0.0962413 33.67622147 -0.09482635 32.68447418 -0.09336853 31.66267395 C-0.08778418 28.50425157 -0.07523452 25.34590085 -0.0625 22.1875 C-0.05748298 20.04231873 -0.05292042 17.89713635 -0.04882812 15.75195312 C-0.03781988 10.50127776 -0.0210973 5.250644 0 0 Z " fill="#146F9E" transform="translate(65,216)"/>
<path d="M0 0 C0.66 0.33 1.32 0.66 2 1 C1.43410156 1.62648437 0.86820313 2.25296875 0.28515625 2.8984375 C-0.44832031 3.71570312 -1.18179688 4.53296875 -1.9375 5.375 C-2.66839844 6.18710937 -3.39929688 6.99921875 -4.15234375 7.8359375 C-6.02989471 9.85924167 -6.02989471 9.85924167 -7 12 C-7.99 12 -8.98 12 -10 12 C-10.33 12.99 -10.66 13.98 -11 15 C-11.66 15 -12.32 15 -13 15 C-13.2475 15.5775 -13.495 16.155 -13.75 16.75 C-15.18299988 19.32939979 -16.78424676 21.06121592 -19 23 C-19.66 23 -20.32 23 -21 23 C-19.56869725 19.83831632 -17.82485862 17.37725517 -15.5625 14.75 C-14.96566406 14.04359375 -14.36882813 13.3371875 -13.75390625 12.609375 C-12 11 -12 11 -9 11 C-8.74476562 10.41734375 -8.48953125 9.8346875 -8.2265625 9.234375 C-6.88258913 6.78611777 -5.38189704 5.18256752 -3.375 3.25 C-2.74335937 2.63640625 -2.11171875 2.0228125 -1.4609375 1.390625 C-0.73777344 0.70226563 -0.73777344 0.70226563 0 0 Z " fill="#0E76AF" transform="translate(58,49)"/>
<path d="M0 0 C3.3 0 6.6 0 10 0 C10 0.66 10 1.32 10 2 C17.02747312 2.66588578 23.94014727 3.11766421 31 3 C31.33 4.32 31.66 5.64 32 7 C30.35 7.33 28.7 7.66 27 8 C27 7.34 27 6.68 27 6 C25.45892578 5.83564453 25.45892578 5.83564453 23.88671875 5.66796875 C15.68815988 4.74622555 7.89521555 3.50907274 0 1 C0 0.67 0 0.34 0 0 Z " fill="#0D83C3" transform="translate(133,352)"/>
<path d="M0 0 C1.29164062 0.43505859 1.29164062 0.43505859 2.609375 0.87890625 C4.77925973 1.59636814 6.95597358 2.2936884 9.140625 2.96484375 C10.16671875 3.28582031 11.1928125 3.60679687 12.25 3.9375 C13.28640625 4.25589844 14.3228125 4.57429688 15.390625 4.90234375 C18 6 18 6 20 9 C21.9466071 10.21418833 21.9466071 10.21418833 24.125 11.1875 C24.84945312 11.53167969 25.57390625 11.87585938 26.3203125 12.23046875 C26.87460938 12.48441406 27.42890625 12.73835938 28 13 C26 14 26 14 24.03222656 13.35083008 C23.24299805 12.99400146 22.45376953 12.63717285 21.640625 12.26953125 C20.77179688 11.87830078 19.90296875 11.48707031 19.0078125 11.08398438 C18.09773438 10.66439453 17.18765625 10.24480469 16.25 9.8125 C14.90808594 9.21211914 14.90808594 9.21211914 13.5390625 8.59960938 C8.7271479 6.41011726 4.24278108 4.16803686 0 1 C0 0.67 0 0.34 0 0 Z " fill="#357CA6" transform="translate(88,335)"/>
<path d="M0 0 C2.39963235 0.95985294 3.73659972 1.57301428 5.11328125 3.8046875 C7.12821756 8.79320822 6.5461349 13.70292962 4.5 18.5625 C4.005 19.366875 3.51 20.17125 3 21 C1.95414607 17.60097473 2 14.53855521 2 11 C1.70285977 8.99430341 1.37938617 6.99177741 1 5 C1.66 5 2.32 5 3 5 C2.01 3.35 1.02 1.7 0 0 Z " fill="#1A3A55" transform="translate(280,123)"/>
<path d="M0 0 C1.65 0 3.3 0 5 0 C5 0.66 5 1.32 5 2 C5.99 2 6.98 2 8 2 C12.19969097 6.44673161 13.13590674 9.79854877 13.09765625 15.765625 C13.09443359 16.65507812 13.09121094 17.54453125 13.08789062 18.4609375 C13.07951172 19.38132813 13.07113281 20.30171875 13.0625 21.25 C13.05798828 22.18585938 13.05347656 23.12171875 13.04882812 24.0859375 C13.03706918 26.39069041 13.02063426 28.69531227 13 31 C12.67 31 12.34 31 12 31 C11.97421875 29.69804687 11.9484375 28.39609375 11.921875 27.0546875 C11.86557299 25.32809244 11.80822613 23.60153124 11.75 21.875 C11.73582031 21.0190625 11.72164063 20.163125 11.70703125 19.28125 C11.49429249 13.75004214 10.75036675 10.33971009 7 6 C5.16680754 4.5128497 5.16680754 4.5128497 3.25 3.625 C2.1775 3.08875 1.105 2.5525 0 2 C0 1.34 0 0.68 0 0 Z " fill="#2F71A0" transform="translate(280,113)"/>
<path d="M0 0 C0.66 0 1.32 0 2 0 C1.43929344 2.27548875 0.85448672 4.54133956 0.24609375 6.8046875 C-0.02074219 7.81789062 -0.28757812 8.83109375 -0.5625 9.875 C-0.83191406 10.88304687 -1.10132813 11.89109375 -1.37890625 12.9296875 C-2.0083053 16.04105638 -2.03564604 18.83641386 -2 22 C-2.63028587 23.68076231 -3.29788106 25.34795544 -4 27 C-4.37593066 28.9924325 -4.71979545 30.9918674 -5 33 C-5.33 33 -5.66 33 -6 33 C-6.2700558 25.1683819 -5.23107719 17.72720775 -4 10 C-3.34 10 -2.68 10 -2 10 C-1.855625 8.72125 -1.71125 7.4425 -1.5625 6.125 C-1.29357254 3.74307106 -1.07773654 2.15547309 0 0 Z " fill="#0F82C3" transform="translate(10,126)"/>
<path d="M0 0 C0.33 0.99 0.66 1.98 1 3 C-7.83244742 12.23596025 -7.83244742 12.23596025 -13 15 C-13.99 14.67 -14.98 14.34 -16 14 C-14.68 13.34 -13.36 12.68 -12 12 C-12 11.34 -12 10.68 -12 10 C-10.390625 8.37890625 -10.390625 8.37890625 -8.25 6.5625 C-7.55390625 5.96566406 -6.8578125 5.36882812 -6.140625 4.75390625 C-4.13326411 3.10918902 -2.08929688 1.53873892 0 0 Z " fill="#153651" transform="translate(274,151)"/>
<path d="M0 0 C-2.58010196 1.48505869 -5.16377559 2.96317311 -7.75 4.4375 C-8.47960937 4.85837891 -9.20921875 5.27925781 -9.9609375 5.71289062 C-10.66992188 6.11572266 -11.37890625 6.51855469 -12.109375 6.93359375 C-12.75874023 7.30540771 -13.40810547 7.67722168 -14.07714844 8.06030273 C-16.03827134 9.0187032 -17.86964435 9.5503043 -20 10 C-20 9.34 -20 8.68 -20 8 C-18.3203125 6.7109375 -18.3203125 6.7109375 -16.125 5.375 C-15.40570313 4.92898438 -14.68640625 4.48296875 -13.9453125 4.0234375 C-12 3 -12 3 -10 3 C-10 2.34 -10 1.68 -10 1 C-6.16112237 -0.48320272 -3.93795909 -1.22419163 0 0 Z " fill="#2A7AA6" transform="translate(276,334)"/>
<path d="M0 0 C1.34203307 4.02609921 0.2900047 7.12951396 -0.6875 11.125 C-0.86958008 11.88675537 -1.05166016 12.64851074 -1.23925781 13.43334961 C-2.61095358 18.94895474 -4.4147268 23.92178479 -7 29 C-7.33 29 -7.66 29 -8 29 C-7.85831863 27.56208484 -7.71148957 26.1246763 -7.5625 24.6875 C-7.48128906 23.88699219 -7.40007812 23.08648437 -7.31640625 22.26171875 C-7 20 -7 20 -6 17 C-5.34 17 -4.68 17 -4 17 C-3.87882812 16.10796875 -3.75765625 15.2159375 -3.6328125 14.296875 C-3.46523438 13.12640625 -3.29765625 11.9559375 -3.125 10.75 C-2.96257812 9.58984375 -2.80015625 8.4296875 -2.6328125 7.234375 C-2.08179569 4.41806687 -1.44203518 2.44782443 0 0 Z " fill="#1180BF" transform="translate(354,216)"/>
<path d="M0 0 C1.875 0.1875 1.875 0.1875 4 1 C4.27972656 1.76828125 4.55945312 2.5365625 4.84765625 3.328125 C6.23572782 6.54656892 7.70697828 7.58701066 10.5625 9.5625 C14.83157475 12.52011499 14.83157475 12.52011499 15.77734375 15.21484375 C15.85082031 15.80394531 15.92429687 16.39304687 16 17 C13.06769807 15.67879172 11.01335101 14.25361803 8.765625 11.9609375 C8.19199219 11.38085938 7.61835937 10.80078125 7.02734375 10.203125 C6.44082031 9.59984375 5.85429688 8.9965625 5.25 8.375 C4.64800781 7.76398438 4.04601563 7.15296875 3.42578125 6.5234375 C1.94594695 5.02011376 0.47235324 3.51065144 -1 2 C-0.67 1.34 -0.34 0.68 0 0 Z " fill="#2E79A5" transform="translate(46,299)"/>
<path d="M0 0 C7.36988707 1.966369 14.13045202 4.69582578 21 8 C21 8.66 21 9.32 21 10 C21.99 10.33 22.98 10.66 24 11 C23.01 11.495 23.01 11.495 22 12 C20.0546875 11.22265625 20.0546875 11.22265625 17.875 10.0625 C17.15054688 9.68222656 16.42609375 9.30195313 15.6796875 8.91015625 C15.12539062 8.60980469 14.57109375 8.30945312 14 8 C14 7.34 14 6.68 14 6 C13.154375 5.896875 12.30875 5.79375 11.4375 5.6875 C7.53944527 4.90788905 4.56596821 3.74802363 1 2 C0.67 1.34 0.34 0.68 0 0 Z " fill="#2979A1" transform="translate(238,10)"/>
<path d="M0 0 C2.475 0.495 2.475 0.495 5 1 C5.33 1.99 5.66 2.98 6 4 C6.66 4 7.32 4 8 4 C9.28317892 7.84953676 9.06643637 10.94738135 9 15 C9.99 15.33 10.98 15.66 12 16 C10.0625 16.5625 10.0625 16.5625 8 17 C6.40646758 15.40646758 6.57445972 13.4433477 6.25 11.25 C5.31311067 6.21241814 3.91713846 4.19556032 0 1 C0 0.67 0 0.34 0 0 Z " fill="#103048" transform="translate(186,176)"/>
<path d="M0 0 C0.33 0 0.66 0 1 0 C1 1.98 1 3.96 1 6 C0.21625 6.20625 -0.5675 6.4125 -1.375 6.625 C-4.30499122 7.78057372 -4.30499122 7.78057372 -5.0625 11 C-5.371875 11.99 -5.68125 12.98 -6 14 C-8.125 15.375 -8.125 15.375 -10 16 C-8.61936434 12.14254559 -6.82183102 9.07512134 -4.4375 5.75 C-3.81746094 4.87859375 -3.19742188 4.0071875 -2.55859375 3.109375 C-1 1 -1 1 0 0 Z " fill="#217BA5" transform="translate(36,72)"/>
<path d="M0 0 C0.33 0.66 0.66 1.32 1 2 C0.67 2.66 0.34 3.32 0 4 C-0.15067214 5.4465242 -0.24861036 6.8987934 -0.31640625 8.3515625 C-0.35830078 9.20234375 -0.40019531 10.053125 -0.44335938 10.9296875 C-0.48267578 11.81914063 -0.52199219 12.70859375 -0.5625 13.625 C-0.60568359 14.5221875 -0.64886719 15.419375 -0.69335938 16.34375 C-0.79956861 18.56234283 -0.90161194 20.7810488 -1 23 C-2.32 23 -3.64 23 -5 23 C-4.34 22.67 -3.68 22.34 -3 22 C-3.03480469 20.91460937 -3.06960937 19.82921875 -3.10546875 18.7109375 C-3.13362388 17.26564058 -3.16092219 15.82032679 -3.1875 14.375 C-3.21263672 13.66214844 -3.23777344 12.94929688 -3.26367188 12.21484375 C-3.33024446 7.37723584 -2.55559453 4.25261662 0 0 Z " fill="#266D8E" transform="translate(142,90)"/>
<path d="M0 0 C6.68993219 0.53951066 12.63460728 1.88706171 19 4 C19 4.66 19 5.32 19 6 C12.23238872 5.05542371 6.1399567 4.06997835 0 1 C0 0.67 0 0.34 0 0 Z " fill="#0F2E48" transform="translate(135,193)"/>
<path d="M0 0 C13.36544536 9.94946304 13.36544536 9.94946304 16 13 C16 13.66 16 14.32 16 15 C14.02 14.34 12.04 13.68 10 13 C10 12.01 10 11.02 10 10 C9.34 10 8.68 10 8 10 C7.67 9.34 7.34 8.68 7 8 C6.01 7.67 5.02 7.34 4 7 C3.67 6.34 3.34 5.68 3 5 C2.01 4.67 1.02 4.34 0 4 C0 2.68 0 1.36 0 0 Z " fill="#1082C2" transform="translate(290,40)"/>
<path d="M0 0 C0.66 0.33 1.32 0.66 2 1 C-3.66319301 6.20444273 -9.62497025 10.70208035 -16 15 C-16.66 14.67 -17.32 14.34 -18 14 C-17.236875 13.401875 -16.47375 12.80375 -15.6875 12.1875 C-13.13417859 10.18519302 -13.13417859 10.18519302 -11.5 8.5 C-8.0969339 5.0969339 -4.28255718 2.19915099 0 0 Z " fill="#28729A" transform="translate(295,317)"/>
<path d="M0 0 C0.66 0 1.32 0 2 0 C3.22899346 6.06815522 4.27560214 11.79895188 4 18 C4.66 18 5.32 18 6 18 C5.67 19.32 5.34 20.64 5 22 C4.01 21.67 3.02 21.34 2 21 C0.49857666 16.49572997 0.98317732 12.06239827 1.0625 7.34765625 C1.01190571 4.6376996 0.81946444 2.55442431 0 0 Z " fill="#0F83BD" transform="translate(354,149)"/>
<path d="M0 0 C-7.14681879 4.76454586 -16.65584634 6.302884 -25 8 C-25 7.34 -25 6.68 -25 6 C-21.87614374 4.23594 -19.09656493 3.54898096 -15.5625 3 C-10.1270881 2.15331553 -5.52866829 -0.3159239 0 0 Z " fill="#1779AF" transform="translate(133,9)"/>
<path d="M0 0 C1.98 0 3.96 0 6 0 C5.01 0.66 4.02 1.32 3 2 C2.67648126 6.8527811 3.0439927 11.21996348 4 16 C3.01 16 2.02 16 1 16 C-0.06723961 12.53777385 -0.10173486 9.35960734 -0.0625 5.75 C-0.04896484 4.13351563 -0.04896484 4.13351563 -0.03515625 2.484375 C-0.02355469 1.66453125 -0.01195313 0.8446875 0 0 Z " fill="#142F46" transform="translate(74,246)"/>
<path d="M0 0 C-1.30477222 3.91431665 -2.98673306 4.57812588 -6.4375 6.75 C-7.92056641 7.70132813 -7.92056641 7.70132813 -9.43359375 8.671875 C-10.28050781 9.11015625 -11.12742188 9.5484375 -12 10 C-12.66 9.67 -13.32 9.34 -14 9 C-11.90429165 6.87881191 -9.7768767 4.80987765 -7.5625 2.8125 C-6.98628906 2.28269531 -6.41007813 1.75289062 -5.81640625 1.20703125 C-4 0 -4 0 0 0 Z " fill="#15354E" transform="translate(256,168)"/>
<path d="M0 0 C0.33 0 0.66 0 1 0 C1.24072071 6.13837823 0.57467517 9.69047642 -2.875 14.75 C-5.0198781 17.02104739 -5.95738092 17.6740051 -9 18 C-9 17.01 -9 16.02 -9 15 C-8.236875 14.401875 -7.47375 13.80375 -6.6875 13.1875 C-2.35172213 9.65837848 -0.80015657 5.44106465 0 0 Z " fill="#23749D" transform="translate(293,257)"/>
<path d="M0 0 C0.33 1.32 0.66 2.64 1 4 C5.29 4 9.58 4 14 4 C14 4.33 14 4.66 14 5 C12.02 5.33 10.04 5.66 8 6 C8 6.66 8 7.32 8 8 C5.03 7.67 2.06 7.34 -1 7 C-0.67 4.69 -0.34 2.38 0 0 Z " fill="#0E3E59" transform="translate(196,184)"/>
<path d="M0 0 C5.66129431 4.69766975 10.85228904 9.74723372 16 15 C15.67 15.66 15.34 16.32 15 17 C13.49410612 15.71520959 11.99542625 14.42195918 10.5 13.125 C9.6646875 12.40570313 8.829375 11.68640625 7.96875 10.9453125 C7.3190625 10.30335937 6.669375 9.66140625 6 9 C6 8.34 6 7.68 6 7 C5.01 6.67 4.02 6.34 3 6 C1.3125 4.625 1.3125 4.625 0 3 C0 2.01 0 1.02 0 0 Z " fill="#32789D" transform="translate(300,46)"/>
<path d="M0 0 C4.71403788 0.47939368 8.66579301 0.96834048 13 3 C13.33 2.34 13.66 1.68 14 1 C14.5775 1.61875 15.155 2.2375 15.75 2.875 C17.82392178 4.8337039 19.45571331 5.8133789 22 7 C13.97613274 6.59200675 7.37635358 4.08963187 0 1 C0 0.67 0 0.34 0 0 Z " fill="#0E7EC1" transform="translate(224,8)"/>
<path d="M0 0 C1.08622755 3.25868265 0.91122669 4.39204274 0.22265625 7.66796875 C0.03896484 8.56064453 -0.14472656 9.45332031 -0.33398438 10.37304688 C-0.63272461 11.76620117 -0.63272461 11.76620117 -0.9375 13.1875 C-1.13279297 14.12787109 -1.32808594 15.06824219 -1.52929688 16.03710938 C-2.01265881 18.35960454 -2.5031383 20.68036206 -3 23 C-3.33 23 -3.66 23 -4 23 C-4.29239362 15.39776578 -4.31088088 6.46632132 0 0 Z " fill="#1D6C98" transform="translate(5,141)"/>
<path d="M0 0 C1.4540625 0.0309375 1.4540625 0.0309375 2.9375 0.0625 C2.9375 0.3925 2.9375 0.7225 2.9375 1.0625 C1.2875 1.3925 -0.3625 1.7225 -2.0625 2.0625 C-2.3925 4.7025 -2.7225 7.3425 -3.0625 10.0625 C-2.4025 10.0625 -1.7425 10.0625 -1.0625 10.0625 C-1.0625 11.3825 -1.0625 12.7025 -1.0625 14.0625 C-2.0525 14.7225 -3.0425 15.3825 -4.0625 16.0625 C-5.0525 15.7325 -6.0425 15.4025 -7.0625 15.0625 C-6.4025 14.0725 -5.7425 13.0825 -5.0625 12.0625 C-4.64172598 9.35654578 -4.64172598 9.35654578 -4.5 6.4375 C-4.09140933 0.08349815 -4.09140933 0.08349815 0 0 Z " fill="#1D3B51" transform="translate(197.0625,197.9375)"/>
<path d="M0 0 C0 0.66 0 1.32 0 2 C-1.609375 3.1484375 -1.609375 3.1484375 -3.75 4.375 C-6.94224039 6.28242023 -9.50964721 8.19835311 -12 11 C-12.33 10.34 -12.66 9.68 -13 9 C-12.67 8.34 -12.34 7.68 -12 7 C-11.34 7 -10.68 7 -10 7 C-9.7525 6.401875 -9.505 5.80375 -9.25 5.1875 C-6.83338246 0.9584193 -4.85302301 0 0 0 Z " fill="#21769F" transform="translate(80,113)"/>
<path d="M0 0 C1.65 0 3.3 0 5 0 C5.08078641 2.12438339 5.13909141 4.2496323 5.1875 6.375 C5.22230469 7.55835938 5.25710938 8.74171875 5.29296875 9.9609375 C5.19628906 10.96382813 5.09960938 11.96671875 5 13 C4.01 13.66 3.02 14.32 2 15 C2.33 10.38 2.66 5.76 3 1 C2.01 0.67 1.02 0.34 0 0 Z " fill="#113247" transform="translate(281,246)"/>
<path d="M0 0 C0.66 0 1.32 0 2 0 C1.34 4.62 0.68 9.24 0 14 C-1.32 14 -2.64 14 -4 14 C-2.68 9.38 -1.36 4.76 0 0 Z " fill="#113248" transform="translate(167,178)"/>
<path d="M0 0 C0.66 0.33 1.32 0.66 2 1 C-1.63 5.95 -5.26 10.9 -9 16 C-9.33 15.01 -9.66 14.02 -10 13 C-8.39347365 9.7869473 -6.5115214 7.5115214 -4 5 C-3.649375 4.29875 -3.29875 3.5975 -2.9375 2.875 C-2 1 -2 1 0 0 Z " fill="#0B80BD" transform="translate(34,79)"/>
<path d="M0 0 C0.66 0.33 1.32 0.66 2 1 C0.71034824 2.37562854 -0.62689293 3.70766393 -2 5 C-2.66 5 -3.32 5 -4 5 C-4.33 5.99 -4.66 6.98 -5 8 C-6.62332967 9.38576923 -8.28724465 10.72641268 -10 12 C-10.66 11.67 -11.32 11.34 -12 11 C-8.42270128 6.33867137 -4.89132699 3.26088466 0 0 Z " fill="#0F86C9" transform="translate(68,42)"/>
<path d="M0 0 C-1 3 -1 3 -2.63671875 4.1328125 C-6.76689322 6.13103025 -10.37081861 7.53708186 -15 8 C-12.61753661 5.31874582 -10.1454496 3.88576541 -6.9375 2.3125 C-5.62072266 1.65701172 -5.62072266 1.65701172 -4.27734375 0.98828125 C-2 0 -2 0 0 0 Z " fill="#2F79A4" transform="translate(107,16)"/>
<path d="M0 0 C0 4.02085211 -1.59292359 6.87772197 -4 10 C-6.75 11.4375 -6.75 11.4375 -9 12 C-7.55575365 8.76138697 -5.74227753 6.38030837 -3.375 3.75 C-2.74335937 3.04359375 -2.11171875 2.3371875 -1.4609375 1.609375 C-0.97882812 1.07828125 -0.49671875 0.5471875 0 0 Z " fill="#2676A1" transform="translate(46,60)"/>
<path d="M0 0 C0.66 0 1.32 0 2 0 C1.43452454 3.95832823 0.42494621 6.79560679 -2 10 C-4.6875 11.3125 -4.6875 11.3125 -7 12 C-6.52570343 7.73133091 -3.96478822 5.89066852 -1 3 C-0.67 2.01 -0.34 1.02 0 0 Z " fill="#1C68A9" transform="translate(332,272)"/>
<path d="M0 0 C2 1 2 1 4 3 C4.1953125 6.0390625 4.1953125 6.0390625 4.125 9.625 C4.10695313 10.81351563 4.08890625 12.00203125 4.0703125 13.2265625 C4.04710937 14.14179688 4.02390625 15.05703125 4 16 C3.34 15.67 2.68 15.34 2 15 C1.65977214 13.00116131 1.32670903 11.00109278 1 9 C0.34 8.34 -0.32 7.68 -1 7 C-0.625 5.0625 -0.625 5.0625 0 3 C0 2.01 0 1.02 0 0 Z " fill="#0A77B9" transform="translate(3,204)"/>
<path d="M0 0 C0 0.66 0 1.32 0 2 C-3.3 2.66 -6.6 3.32 -10 4 C-10 4.66 -10 5.32 -10 6 C-10.99 6 -11.98 6 -13 6 C-13 5.34 -13 4.68 -13 4 C-12.34 4 -11.68 4 -11 4 C-11 3.34 -11 2.68 -11 2 C-3.375 0 -3.375 0 0 0 Z " fill="#0A86C6" transform="translate(245,345)"/>
<path d="M0 0 C5.27315333 0.4452885 10.01770224 1.08373163 15 3 C15 3.66 15 4.32 15 5 C13.33129513 4.67702486 11.66534667 4.33986667 10 4 C9.24074219 3.85433594 8.48148438 3.70867188 7.69921875 3.55859375 C6.89097656 3.39488281 6.08273438 3.23117187 5.25 3.0625 C4.47140625 2.90910156 3.6928125 2.75570313 2.890625 2.59765625 C2.26671875 2.40042969 1.6428125 2.20320312 1 2 C0.67 1.34 0.34 0.68 0 0 Z " fill="#1F79A3" transform="translate(222,6)"/>
<path d="M0 0 C-1.28965176 1.37562854 -2.62689293 2.70766393 -4 4 C-4.66 4 -5.32 4 -6 4 C-6.33 4.99 -6.66 5.98 -7 7 C-7.66 7 -8.32 7 -9 7 C-8.39816251 4.97954558 -7.72693904 2.97888961 -7 1 C-4.53721199 -0.231394 -2.7204945 -0.07159196 0 0 Z " fill="#0B84C7" transform="translate(289,321)"/>
<path d="M0 0 C1.27350058 3.01009228 0.99687398 4.00781505 -0.25 7.125 C-2 10 -2 10 -5 12 C-3.14285714 3.42857143 -3.14285714 3.42857143 0 0 Z " fill="#1081C2" transform="translate(20,102)"/>
<path d="M0 0 C2.125 0.9375 2.125 0.9375 4 2 C3.34 2 2.68 2 2 2 C2 2.99 2 3.98 2 5 C-0.64 5 -3.28 5 -6 5 C-2.25 1.125 -2.25 1.125 0 0 Z " fill="#1281B9" transform="translate(254,340)"/>
<path d="M0 0 C3 1 3 1 4.16796875 3.21484375 C4.50441406 4.11332031 4.84085938 5.01179688 5.1875 5.9375 C5.70376953 7.28134766 5.70376953 7.28134766 6.23046875 8.65234375 C7 11 7 11 7 13 C6.01 13.33 5.02 13.66 4 14 C3.896875 13.175 3.79375 12.35 3.6875 11.5 C2.88353944 7.40710988 1.53647842 3.87459775 0 0 Z " fill="#0F7BC1" transform="translate(20,258)"/>
<path d="M0 0 C0.99 0.33 1.98 0.66 3 1 C2.01 3.31 1.02 5.62 0 8 C-0.33 8 -0.66 8 -1 8 C-1.33 9.65 -1.66 11.3 -2 13 C-2.33 13 -2.66 13 -3 13 C-3.17791204 8.46324303 -3.0461125 5.092225 -1 1 C-0.67 0.67 -0.34 0.34 0 0 Z " fill="#1F3B57" transform="translate(77,125)"/>
<path d="M0 0 C-3.46735947 3.03393954 -7.52949826 4.9351577 -12 6 C-12.99 5.67 -13.98 5.34 -15 5 C-12.69 4.34 -10.38 3.68 -8 3 C-8 2.34 -8 1.68 -8 1 C-5.07175348 0.02391783 -3.04386724 -0.08226668 0 0 Z " fill="#31769D" transform="translate(253,345)"/>
<path d="M0 0 C0.33 0.99 0.66 1.98 1 3 C0.01 3.66 -0.98 4.32 -2 5 C-2 5.99 -2 6.98 -2 8 C-2.99 8.33 -3.98 8.66 -5 9 C-5.66 8.34 -6.32 7.68 -7 7 C-6.34 7 -5.68 7 -5 7 C-4.9175 6.401875 -4.835 5.80375 -4.75 5.1875 C-3.79544128 2.4033704 -2.42867729 1.56688858 0 0 Z " fill="#11405D" transform="translate(261,160)"/>
<path d="M0 0 C0.99 0 1.98 0 3 0 C3 0.99 3 1.98 3 3 C3.66 3 4.32 3 5 3 C5 3.66 5 4.32 5 5 C5.99 5.33 6.98 5.66 8 6 C7.67 6.99 7.34 7.98 7 9 C5.82460004 8.07347299 4.65989423 7.13336613 3.5 6.1875 C2.52546875 5.40439453 2.52546875 5.40439453 1.53125 4.60546875 C0 3 0 3 0 0 Z " fill="#0E7FBF" transform="translate(50,301)"/>
<path d="M0 0 C0.99 0.33 1.98 0.66 3 1 C0.59384348 3.65506927 -1.17959767 4.92164697 -4.78125 5.265625 C-7.53033855 5.25145444 -10.25655321 5.17296687 -13 5 C-13 4.67 -13 4.34 -13 4 C-12.31292969 3.87882813 -11.62585938 3.75765625 -10.91796875 3.6328125 C-9.56638672 3.38144531 -9.56638672 3.38144531 -8.1875 3.125 C-7.29417969 2.96257812 -6.40085938 2.80015625 -5.48046875 2.6328125 C-2.77272154 2.08811551 -2.77272154 2.08811551 0 0 Z " fill="#092B43" transform="translate(189,214)"/>
<path d="M0 0 C0.66 0 1.32 0 2 0 C0.125 3.875 0.125 3.875 -1 5 C-3.33297433 5.04092937 -5.66705225 5.04241723 -8 5 C-8 4.34 -8 3.68 -8 3 C-6.865625 2.690625 -5.73125 2.38125 -4.5625 2.0625 C-1.21224901 1.37075469 -1.21224901 1.37075469 0 0 Z " fill="#0F3148" transform="translate(281,262)"/>
<path d="M0 0 C1.299375 0.4640625 1.299375 0.4640625 2.625 0.9375 C5.76150738 1.92491899 8.75067413 2.53581059 12 3 C11.67 3.66 11.34 4.32 11 5 C7.12459955 5.17615457 4.24484731 5.28341107 1 3 C0.67 2.01 0.34 1.02 0 0 Z " fill="#0F324E" transform="translate(119,177)"/>
<path d="M0 0 C0.33 0.99 0.66 1.98 1 3 C-1.52788007 5.79872437 -3.20411134 7.45773019 -7 8 C-5.50902342 4.2047869 -3.24299151 2.38957269 0 0 Z " fill="#0E2F47" transform="translate(274,151)"/>
<path d="M0 0 C0.99 0.33 1.98 0.66 3 1 C0.36 3.97 -2.28 6.94 -5 10 C-5 6.11817249 -4.00478008 4.08207086 -1.375 1.25 C-0.92125 0.8375 -0.4675 0.425 0 0 Z " fill="#2F7396" transform="translate(319,292)"/>
<path d="M0 0 C3.63 1.98 7.26 3.96 11 6 C7 7 7 7 5.078125 6.22265625 C3.38541667 5.1484375 1.69270833 4.07421875 0 3 C0 2.01 0 1.02 0 0 Z " fill="#23739A" transform="translate(71,269)"/>
<path d="M0 0 C0.9590625 0.4640625 0.9590625 0.4640625 1.9375 0.9375 C5.92049104 2.31935403 9.81650849 2.6536543 14 3 C14 3.33 14 3.66 14 4 C12.58566794 4.2236337 11.16832382 4.42826476 9.75 4.625 C8.96109375 4.74101562 8.1721875 4.85703125 7.359375 4.9765625 C4.61793285 5.00379537 3.25229848 4.54471799 1 3 C0.67 2.01 0.34 1.02 0 0 Z " fill="#213E4F" transform="translate(170,214)"/>
<path d="M0 0 C1.33804688 0.04060547 1.33804688 0.04060547 2.703125 0.08203125 C3.37859375 0.11683594 4.0540625 0.15164062 4.75 0.1875 C4.75 0.5175 4.75 0.8475 4.75 1.1875 C-4.66002278 3.48362756 -4.66002278 3.48362756 -9.25 3.1875 C-6.10408067 0.38704377 -4.182936 -0.16511589 0 0 Z " fill="#0A2B48" transform="translate(179.25,174.8125)"/>
<path d="M0 0 C-0.33 1.65 -0.66 3.3 -1 5 C-1.33 4.34 -1.66 3.68 -2 3 C-3.98 3.66 -5.96 4.32 -8 5 C-7.67 4.01 -7.34 3.02 -7 2 C-4.56723614 0.81480735 -2.71982714 0 0 0 Z " fill="#08324E" transform="translate(261,175)"/>
<path d="M0 0 C1.32 1.32 2.64 2.64 4 4 C3.67 4.99 3.34 5.98 3 7 C2.34 6.34 1.68 5.68 1 5 C0.34 5.99 -0.32 6.98 -1 8 C-1.93065133 5.39417629 -2.14917407 4.35801776 -1.0625 1.75 C-0.711875 1.1725 -0.36125 0.595 0 0 Z " fill="#0C83C3" transform="translate(332,88)"/>
<path d="M0 0 C2.4375 0.375 2.4375 0.375 5 1 C5.33 1.66 5.66 2.32 6 3 C4 5 4 5 0.375 5.125 C-0.73875 5.08375 -1.8525 5.0425 -3 5 C-1.68 4.34 -0.36 3.68 1 3 C0.67 2.01 0.34 1.02 0 0 Z " fill="#077DC3" transform="translate(268,26)"/>
<path d="M0 0 C5.63281599 -0.2396943 10.54538831 0.61470179 16 2 C16 2.33 16 2.66 16 3 C11.75174388 3.96551275 9.76653697 4.11867705 6 2 C4.00889599 1.61709538 2.00899487 1.27395385 0 1 C0 0.67 0 0.34 0 0 Z " fill="#0979B7" transform="translate(200,3)"/>
<path d="M0 0 C0.66 0.33 1.32 0.66 2 1 C1.34 2.32 0.68 3.64 0 5 C-1.65 4.67 -3.3 4.34 -5 4 C-5 3.34 -5 2.68 -5 2 C-2.625 0.9375 -2.625 0.9375 0 0 Z " fill="#113957" transform="translate(232,189)"/>
<path d="M0 0 C0.33 0 0.66 0 1 0 C1 1.98 1 3.96 1 6 C0.34 6 -0.32 6 -1 6 C-1.33 7.98 -1.66 9.96 -2 12 C-2.33 12 -2.66 12 -3 12 C-3.29344873 7.01137151 -3.05887078 4.03770942 0 0 Z " fill="#1774A6" transform="translate(11,120)"/>
<path d="M0 0 C-0.1875 1.875 -0.1875 1.875 -1 4 C-3.5625 5.25 -3.5625 5.25 -6 6 C-6.33 5.34 -6.66 4.68 -7 4 C-6.34 4 -5.68 4 -5 4 C-5 3.34 -5 2.68 -5 2 C-2 0 -2 0 0 0 Z " fill="#0A3C5E" transform="translate(280,161)"/>
<path d="M0 0 C3.3 1.65 6.6 3.3 10 5 C7 6 7 6 5.17578125 5.22265625 C3.45052083 4.1484375 1.72526042 3.07421875 0 2 C0 1.34 0 0.68 0 0 Z " fill="#3176A0" transform="translate(264,21)"/>
<path d="M0 0 C1.32 0 2.64 0 4 0 C4 0.66 4 1.32 4 2 C5.98 2.66 7.96 3.32 10 4 C10 4.33 10 4.66 10 5 C8.35 5 6.7 5 5 5 C5 4.34 5 3.68 5 3 C4.360625 2.87625 3.72125 2.7525 3.0625 2.625 C2.381875 2.41875 1.70125 2.2125 1 2 C0.67 1.34 0.34 0.68 0 0 Z " fill="#1181C0" transform="translate(248,16)"/>
<path d="M0 0 C0.33 0.99 0.66 1.98 1 3 C0.54625 3.433125 0.0925 3.86625 -0.375 4.3125 C-2.20024334 6.10798342 -2.20024334 6.10798342 -4 9 C-3.67 6.69 -3.34 4.38 -3 2 C-2.01 2 -1.02 2 0 2 C0 1.34 0 0.68 0 0 Z " fill="#1481BF" transform="translate(335,266)"/>
<path d="M0 0 C0.99 0 1.98 0 3 0 C4.35439668 2.70879335 4.06501451 5.00933268 4 8 C3.34 7.67 2.68 7.34 2 7 C1.26924352 4.6859378 0.59861742 2.35171131 0 0 Z " fill="#1181C0" transform="translate(15,248)"/>
<path d="M0 0 C0.33 0.66 0.66 1.32 1 2 C1.66 2 2.32 2 3 2 C3 3.65 3 5.3 3 7 C1.35 5.68 -0.3 4.36 -2 3 C-1 1 -1 1 0 0 Z " fill="#1F3C52" transform="translate(84,148)"/>
<path d="M0 0 C0.66 0 1.32 0 2 0 C1.25 2.4375 1.25 2.4375 0 5 C-2.125 5.8125 -2.125 5.8125 -4 6 C-2.84826645 3.53199953 -1.95216435 1.95216435 0 0 Z " fill="#143049" transform="translate(280,144)"/>
<path d="M0 0 C2.31 0.33 4.62 0.66 7 1 C7 1.66 7 2.32 7 3 C7.99 3.33 8.98 3.66 10 4 C9.01 4.495 9.01 4.495 8 5 C6.0546875 4.22265625 6.0546875 4.22265625 3.875 3.0625 C3.15054688 2.68222656 2.42609375 2.30195313 1.6796875 1.91015625 C1.12539062 1.60980469 0.57109375 1.30945313 0 1 C0 0.67 0 0.34 0 0 Z " fill="#1871A0" transform="translate(252,17)"/>
<path d="M0 0 C2.475 0.495 2.475 0.495 5 1 C5.33 2.32 5.66 3.64 6 5 C4.02 4.34 2.04 3.68 0 3 C0 2.01 0 1.02 0 0 Z " fill="#107DBC" transform="translate(90,333)"/>
<path d="M0 0 C0.99 0 1.98 0 3 0 C2.1875 2.4375 2.1875 2.4375 1 5 C0.01 5.33 -0.98 5.66 -2 6 C-1.125 1.125 -1.125 1.125 0 0 Z " fill="#0C84C6" transform="translate(309,299)"/>
</svg>
